<?xml version="1.0" encoding="UTF-8"?>
<svg xmlns="http://www.w3.org/2000/svg" xmlns:xlink="http://www.w3.org/1999/xlink" xmlns:svg="http://www.w3.org/2000/svg" xmlns:sodipodi="http://sodipodi.sourceforge.net/DTD/sodipodi-0.dtd" xmlns:inkscape="http://www.inkscape.org/namespaces/inkscape" version="1.1" viewBox="0 0 874.2 792.9">
  <!-- Generator: Adobe Illustrator 29.0.1, SVG Export Plug-In . SVG Version: 2.1.0 Build 192)  -->
  <defs>
    <style>
      .st0, .st1, .st2, .st3, .st4, .st5 {
        fill: none;
      }

      .st6 {
        fill: #909090;
      }

      .st7 {
        fill: #a7a7a7;
      }

      .st8 {
        fill: #6c6c6c;
      }

      .st9 {
        fill: #bdbdbd;
      }

      .st10 {
        fill: #a9a9a9;
      }

      .st11 {
        fill: #939393;
      }

      .st12 {
        fill: #e3e3e3;
      }

      .st13 {
        fill: #d2d2d2;
      }

      .st14 {
        fill: #b5b5b5;
      }

      .st15 {
        fill: #9a9a9a;
      }

      .st16 {
        fill: #d0d0d0;
      }

      .st17 {
        fill: #f9e6de;
      }

      .st18 {
        fill: #7a7a7a;
      }

      .st1 {
        stroke: #fff;
      }

      .st1, .st2, .st3, .st4, .st5 {
        stroke-miterlimit: 10;
      }

      .st19 {
        fill: #efefef;
      }

      .st20 {
        fill: #8e8e8e;
      }

      .st21 {
        fill: #a1a1a1;
      }

      .st22 {
        fill: #979797;
      }

      .st23 {
        fill: #868686;
      }

      .st24 {
        fill: #cecece;
      }

      .st25 {
        fill: #e2a489;
      }

      .st26 {
        fill: #969696;
      }

      .st27 {
        fill: url(#linear-gradient);
      }

      .st28 {
        fill: #aaa;
      }

      .st29 {
        fill: #b4b4b4;
      }

      .st30 {
        fill: #ccc;
      }

      .st2 {
        stroke-width: 1.5px;
      }

      .st2, .st3, .st4 {
        stroke: #000;
      }

      .st3 {
        stroke-width: 1.5px;
      }

      .st31 {
        fill: #9d9d9d;
      }

      .st32 {
        fill: #757575;
      }

      .st33 {
        isolation: isolate;
      }

      .st34 {
        fill: #c3c3c3;
      }

      .st35 {
        mix-blend-mode: multiply;
      }

      .st36 {
        fill: #bebebe;
      }

      .st37 {
        fill: #c7c7c7;
      }

      .st38 {
        fill: #717171;
      }

      .st39 {
        fill: #b0b0b0;
      }

      .st40 {
        fill: #d7d7d7;
      }

      .st41 {
        fill: #9b9b9b;
      }

      .st42 {
        fill: #848484;
      }

      .st43 {
        fill: #6f6f6f;
      }

      .st44 {
        fill: #fff;
      }

      .st45 {
        fill: #f9c7dc;
      }

      .st46 {
        fill: #bcbcbc;
      }

      .st47 {
        fill: #9f9f9f;
      }

      .st48 {
        fill: #bababa;
      }

      .st49 {
        fill: #fafafa;
      }

      .st50 {
        fill: #bbb;
      }

      .st51 {
        fill: #cd5257;
      }

      .st52 {
        fill: #818181;
      }

      .st53 {
        fill: #7e7e7e;
      }

      .st54 {
        fill: #878787;
      }

      .st55 {
        fill: #b8b8b8;
      }

      .st56 {
        fill: #959595;
      }

      .st57 {
        fill: #a3a3a3;
      }

      .st58 {
        fill: #858585;
      }

      .st59 {
        fill: #8b8b8b;
      }

      .st60 {
        fill: #fefefe;
      }

      .st61 {
        fill: #acacac;
      }

      .st62 {
        fill: #a2a2a2;
      }

      .st63 {
        fill: #8a8a8a;
      }

      .st5 {
        stroke: #f5a59a;
        stroke-width: 13.7px;
      }

      .st64 {
        fill: #e1e1e1;
      }

      .st65 {
        fill: #949494;
      }

      .st66 {
        fill: #838383;
      }

      .st67 {
        fill: #8d8d8d;
      }

      .st68 {
        fill: #b9b9b9;
      }

      .st69 {
        fill: #cbcbcb;
      }

      .st70 {
        fill: #ff0043;
      }

      .st71 {
        fill: #aeaeae;
      }

      .st72 {
        fill: #9e9e9e;
      }

      .st73 {
        fill: #a8a8a8;
      }

      .st74 {
        fill: #a4a4a4;
      }

      .st75 {
        fill: #989898;
      }

      .st76 {
        fill: #ededed;
      }

      .st77 {
        fill: #787878;
      }

      .st78 {
        fill: #adadad;
      }

      .st79 {
        fill: #c8c8c8;
      }

      .st80 {
        fill: #d3d3d3;
      }

      .st81 {
        fill: #d1d1d1;
      }

      .st82 {
        fill: #b6b6b6;
      }

      .st83 {
        clip-path: url(#clippath);
      }

      .st84 {
        fill: #cacaca;
      }

      .st85 {
        fill: #898989;
      }

      .st86 {
        fill: #cfcfcf;
      }

      .st87 {
        fill: #b2b2b2;
      }

      .st88 {
        fill: #f4e4ea;
      }
    </style>
    <clipPath id="clippath">
      <rect class="st0" x="745.4" y="641.3" width="48" height="48"/>
    </clipPath>
    <linearGradient id="linear-gradient" x1="751.6" y1="1667.6" x2="787.2" y2="1647" gradientTransform="translate(0 -992)" gradientUnits="userSpaceOnUse">
      <stop offset=".1" stop-color="#fff" stop-opacity="0"/>
      <stop offset=".4" stop-color="#fff"/>
    </linearGradient>
  </defs>
  <g class="st33">
    <g id="Layer_1">
      <g id="svg900" inkscape:version="1.1.2 (b8e25be833, 2022-02-05)" sodipodi:docname="collecting_duct_inner_medullary_kidney.svg">
        <g id="Crosswalk">
          <g id="Blood_Cell">
            <polyline id="Blood_cell" class="st0" points="167.3 209.9 151.7 212 133.3 220.3 113.3 223.3 103.6 231.5 102 242.2 101.7 253.9 109.3 262.4 128 266.6 150.1 262 173.8 248.9 181.8 239.2 185.4 226.8 178.5 214.2 167.3 209.9"/>
          </g>
          <g id="Endothelium_Peritubular_Capillary">
            <polyline id="Endothelium_Peritubular_Capillary_1" class="st0" points="122.6 160.1 106.9 167.3 92.5 176.7 79.1 188.6 68.4 190 66.9 185.6 78.7 174.8 92.5 162.7 103.6 154.6 113.2 153 122.3 154.1 122.6 160.1"/>
            <polyline id="Endothelium_Peritubular_Capillary_2" class="st0" points="132.2 156.8 139.6 163.8 149.6 164.5 159.2 165.3 171.1 166.1 181 169.1 188.9 170.7 195.7 168.6 194.9 163.8 187.6 157.1 180.2 154.3 167.3 154.3 154.2 154.3 144.8 153.4 137.4 152.6 132.2 156.8"/>
            <path id="Endothelium_Peritubular_Capillary_3" class="st0" d="M206.5,174.6c-1.7,5.6-.2,8.3-.2,8.3l2.3,9.5,4.5,9.4,1.5,11.1-2.2,12-10.6,17.7-7.6,9.9-5.6,11.4-4.4,18-3.7,13.4-15.8,11.5-11.7,5.1-15.8,5.4-4.9,3.5-6.3,3.6,6.2,5.1h12.4c0-.1,15.1-10.5,15.1-10.5l18-5.1,14.8-8.2,16-19.6,11.6-18.1,7.4-23.2v-21.4c.1,0-2.4-15.5-2.4-15.5l-2.1-13.5-4.3-13.3-9.8-6.6"/>
            <polyline id="Endothelium_Peritubular_Capillary_4" class="st0" points="68.1 278.4 62.5 285.3 63.8 290.5 67.5 295.6 72.2 299 84.7 316.2 95 322.9 104.4 324.4 108.6 321.7 106.2 316.6 90.5 304.8 85.9 296.8 79.8 284 76.1 279.7 68.1 278.4"/>
            <polyline id="Endothelium_Peritubular_Capillary_5" class="st0" points="65 200.9 63.1 211.6 59.4 228.2 58.3 246.8 58.7 255.5 61.2 263.3 57 266.5 50.4 259.4 49.1 241.7 46.5 222.3 50.2 212.5 55.7 205.4 65 200.9"/>
          </g>
          <g id="Inner_Medullary_Collecting_Duct_Cell">
            <polyline id="Inner_Medullary_Collecting_Duct_Cell_1" class="st0" points="358.1 243.3 354.7 250.5 359 259.1 377.6 272.2 389.7 291.9 401.2 302.5 412.7 304.6 431.5 299.9 447.2 294.7 454.2 272 458.9 255.6 468.9 239.6 477.4 227.6 463.8 224.9 440.1 223.6 406.9 229.4 378.9 233.5 358.1 243.3"/>
            <polyline id="Inner_Medullary_Collecting_Duct_Cell_2" class="st0" points="482.8 226.5 501.7 231 520.5 239.2 543.9 250 558.2 260.4 564.8 269.5 566.3 277.1 556.5 285.5 541.3 298.6 525.6 314.9 509.5 326.8 506.3 333 490.9 326.7 475.3 318.9 458.9 308.3 451 299.3 449.1 290.8 457.6 264.1 468.4 244 477.4 230.8 482.8 226.5"/>
            <polygon id="Inner_Medullary_Collecting_Duct_Cell_3" class="st0" points="567.9 282.7 550.9 294.3 530 314.2 513.5 326.8 506.2 338.7 507.7 351.1 512 362 521.1 374.4 529.3 383.4 541.4 388.8 548.2 387.2 570.7 379 601.1 370.6 616.9 368.3 624.7 371.1 630.8 367.4 623.8 349.2 610.5 325.8 599 310 587.1 292.2 578.4 285.6 567.9 282.7"/>
            <polyline id="Inner_Medullary_Collecting_Duct_Cell_4" class="st0" points="545.1 393.2 539.6 399.8 541 409.9 540.8 424.5 544.1 442.4 550.9 453.9 566.3 456.8 593.8 462.9 613.4 465.6 641.1 476.9 644.1 470.3 645.8 455.2 643.2 428.1 641.4 407.8 639.5 393.2 636.3 380.4 630.1 370.6 612.5 370.6 580.5 379 558.3 387.2 545.1 393.2"/>
            <polyline id="Inner_Medullary_Collecting_Duct_Cell_5" class="st0" points="561.1 461 548.1 463.4 543.6 474 540.8 491.8 539.4 505.3 537.5 518.3 545.5 523.4 562.2 535.2 588.1 554.6 599 564.3 605 569 613.8 563.4 625.6 534.3 634 512.9 638.4 497.1 643.2 482.7 636.3 474.8 608.3 465.8 580.5 459.4 561.1 461"/>
            <polyline id="Inner_Medullary_Collecting_Duct_Cell_6" class="st0" points="531.1 524.4 552.5 531.4 569.3 542.9 586.6 557.3 596.9 567 599.8 573.9 599.8 582 585.8 600.8 568.5 620.6 548 635.3 531.1 641.5 523.8 636.5 513.8 616.5 501.1 594.6 491.6 576.6 489 569 491.9 558.9 501.8 545 514.7 533.4 531.1 524.4"/>
            <polyline id="Inner_Medullary_Collecting_Duct_Cell_7" class="st0" points="432.9 591.8 428.7 604.2 420.2 651 417.3 661 420 665 426.1 668 447.1 666.2 475.9 663.5 500.5 656.9 517.6 650.2 522.8 647.8 525.6 645.2 524.7 641.4 513.5 625.1 500.5 597.7 492 586.2 484.2 574.8 471.4 571.7 450.7 575.2 439.2 582.9 432.9 591.8"/>
            <polyline id="Inner_Medullary_Collecting_Duct_Cell_8" class="st0" points="360.7 584.7 373.4 574.6 389 572.7 400.4 572 409.3 572.4 420.4 578.7 425.7 587.7 427.2 594.9 423.9 615 419.9 637.5 416.1 648.9 414.3 655.2 414.2 666.6 406.8 670.8 375.9 668.7 347.8 662.5 336.1 656.9 335.8 649.5 342.9 635.6 348.8 618.6 351.8 606.4 360.7 584.7"/>
            <path id="Inner_Medullary_Collecting_Duct_Cell_9" class="st0" d="M304.5,536.2c12.5,3.3,24,9.3,24,9.3l20.9,14.4,7.8,10.1,1.9,6.2-4.3,14.3-6.9,18.6-1.9,11.8-9.3,21.5-8.8,13.1-21.5-5.3-28.4-12.7-18.6-12.3-11.5-11.2,6-6.8,4.2-6.3,9.5-16,10.4-11.7,11-9.7,9.6-23.5,5.9-3.8"/>
            <polyline id="Inner_Medullary_Collecting_Duct_Cell_10" class="st0" points="208.3 526.3 230 515.9 251.7 510.1 275.1 509.6 288.9 508.6 299 520.1 300.9 534 295.6 545.9 290 558.5 274.3 573.3 267.6 584.8 255.1 600.8 245.3 605.8 235.1 605.3 224.7 592.8 210.8 573.3 203.7 548.6 202.4 530.3 208.3 526.3"/>
            <polyline id="Inner_Medullary_Collecting_Duct_Cell_11" class="st0" points="205.5 434.5 225 449.9 235.7 452.4 246.1 460 271 465.9 282.6 470.5 290.1 477.6 292 490.5 289.5 506.5 274.9 506.5 246.1 510.8 221.6 518.6 205.1 522.9 201.5 497.7 202.6 476.9 202.8 455 205.5 434.5"/>
            <polyline id="Inner_Medullary_Collecting_Duct_Cell_12" class="st0" points="226.4 369.8 218.6 381.2 213.1 403.2 208.3 418.4 208.3 430.1 210.8 435.7 227.3 448.8 248.7 456.8 271.9 463.4 283.8 464.1 292 457.7 295.7 444.2 298 428.1 297.5 413.4 288.9 404.5 282.8 400.6 263.6 394.5 248.8 386.2 237.1 377.3 226.4 369.8"/>
            <polygon id="Inner_Medullary_Collecting_Duct_Cell_13" class="st0" points="227.5 364.7 244.3 378.8 252.5 382.4 271 393.2 290 401.4 299 406 304.6 405.4 314.3 397 325.4 381.2 332.2 366.5 334.8 360.3 333.7 334.4 325.4 311.3 312 291 306.4 282.7 299.1 281.1 289.1 280 267.6 299 244.3 326.8 233 343.7 230.6 352.7 227.5 364.7"/>
            <polyline id="Inner_Medullary_Collecting_Duct_Cell_14" class="st0" points="303.2 271 304.5 276.7 312 291 325.4 311.3 337.5 331 344.7 337 356.7 335.6 368.1 327.6 380.2 316.9 392.6 308.9 391.4 300.5 383.2 285.4 369.9 273.1 362.1 262.6 351.2 254.2 347.9 247.2 332.2 252.5 312.8 264.1 303.2 271"/>
          </g>
        </g>
        <g id="art">
          <g id="g94">
            <g id="g56">
              <path id="path50" class="st88" d="M78.7,293.6c13.3,16.2,1,20.7,20.4,28.6s42.8,11.9,58-2.5c8.9-8.4,45.8-26.7,47.8-38.8,2.1-12.1,14.2-66.5,13.7-78.8-.6-12.7,2.2-16.3-7.2-24.8-13.3-12-29.6-23.2-42.9-19.7-14.2,3.7-7.2,1.9-21,1.4-19.1-.6-26.6-7.1-44.1.4s-25.3,15.6-36.6,31.3c-11.1,15.4-15.2,14.1-18.4,32.8-2,11.8,0,24.9,3.6,36.4,3.3,11,8,22.7,15.3,31.5"/>
              <g id="g54">
                <path id="path52" class="st88" d="M77,295.3c2.7,3.3,4.9,6.9,6,10.9.7,2.5,1,5.2,2,7.7,1.2,3.1,3.5,5.4,6.3,7.1,4.5,2.8,9.7,4.6,14.7,6.3,10.5,3.5,21.8,5.5,32.8,3.7,5.2-.8,10.4-2.7,14.8-5.6,2.1-1.3,3.9-3,5.7-4.6.4-.4.9-.8,1.3-1.1.1,0,.6-.4.1-.1.1-.1.2-.2.3-.2.3-.2.7-.5,1-.7,6.6-4.8,13.6-9,20.4-13.5,6.9-4.5,14-9.3,19.7-15.3,2-2.2,4.1-4.8,4.8-7.7.5-2.1.8-4.3,1.2-6.4,1.4-7.2,2.9-14.3,4.3-21.4,1.7-8.6,3.4-17.1,4.9-25.7,1.3-7.1,2.5-14.2,3.2-21.3.3-2.9.2-5.6.1-8.5,0-4,.4-8.1-.4-12-.9-4.2-3.7-7.7-6.8-10.6-4.7-4.4-9.8-8.5-15.1-12.1-4.9-3.3-10.2-6.3-16-8.1-5.4-1.7-10.7-1.8-16.1-.4-2.2.6-4.3,1.2-6.5,1.6-.3.1-.6.1-.9.2-.7.1.4,0-.2,0h-1.3c-1.1-.1-2.3-.3-3.4-.4-2.5-.3-5-.4-7.6-.5-5.5-.2-11-1.2-16.5-2.1-4.6-.8-9.3-1.4-14-.9-5.9.6-11.4,2.6-16.7,5.1-4.6,2.1-9.1,4.6-13.2,7.6-8.2,6-14.5,13.7-20.4,21.8-2.9,3.9-5.9,7.7-9.1,11.4-2.3,2.6-4.5,5.3-6.1,8.4-2.1,4-3.2,8.4-4,12.8-1.2,6.4-1.5,12.9-.9,19.4,1.2,12.9,5,25.9,10.6,37.6,2.5,5.4,5.7,10.6,9.5,15.2.8,1,2.5.8,3.3,0,1-1,.8-2.3,0-3.3-7.6-9.2-12-20.8-15.2-32.2-3.5-12.2-4.9-24.8-2.3-37.4.8-4,1.9-7.7,3.8-11,.4-.6.8-1.3,1.2-1.9.5-.8.8-1.1,1.3-1.7,1.1-1.4,2.3-2.7,3.4-4,6.7-7.5,12-16.1,19-23.4,6.6-6.9,14.4-12,23.1-15.9,4.7-2.1,9.7-3.7,14.9-3.9,4.5-.2,9,.6,13.5,1.3,5.6.9,11.2,1.6,16.9,1.9,2.2.1,4.3.2,6.5.5,1,.1,2,.3,3.1.3,3.3.1,6.7-1.2,9.9-2,2.5-.6,4.8-1,7.4-.9,2.5.2,5,.8,7.4,1.6,5.4,1.8,10.4,4.8,15,8.1,5,3.5,9.9,7.4,14.2,11.8,1.4,1.4,2.5,2.8,3.4,4.5.5.9,1,2.9,1.1,3.8.4,4.2,0,8.5.1,12.7.1,2.2-.1,4.4-.3,6.6-.1.7-.1,1.3-.2,2,0,.4-.1.7-.1,1.1s-.1.4-.1.7c-.1.7.1-.5,0,.3-.2,1.7-.5,3.4-.8,5.2-1.3,8-2.8,16-4.3,24s-3.2,15.9-4.8,23.8c-.6,3.1-1.3,6.2-1.9,9.3-.4,2-.6,4.2-1.2,6.2-.1.3-.2.5-.3.8-.2.5.2-.5,0,.1,0,.1-.1.2-.1.3-.3.6-.7,1.2-1.1,1.8-.2.3-.4.5-.6.8-.2.3.3-.4-.1.1-.1.2-.3.3-.4.5-.5.6-1.1,1.2-1.7,1.8-2.5,2.6-5.4,5-8.3,7.1-6.9,5.1-14.2,9.7-21.4,14.4-3,1.9-6,3.9-8.9,6s-5.4,4.7-8.4,6.7c-8.5,5.6-19.1,6.5-29,5-5.3-.8-10.6-2.1-15.7-3.9-4.6-1.6-9.5-3.2-13.5-6-.6-.4-.8-.6-1.5-1.2-.2-.2-.5-.5-.7-.7s-.2-.3-.4-.4c.2.3,0,.1,0-.1-.3-.5-.6-1-.8-1.5-.3-.6,0,.3,0-.3s-.2-.6-.3-.9c-.8-2.6-1.1-5.4-2-8-1.5-4.2-3.9-8-6.8-11.4-.8-1-2.5-.8-3.3,0-1.3.9-1.1,2.3-.3,3.3h0Z"/>
              </g>
            </g>
            <g id="g64">
              <path id="path58" class="st45" d="M181.8,293.1c-1.4,10.3-11.1,17.6-20.9,21-9.8,3.5-20.5,4.5-29.9,9-2.1,1-5.3.7-3.3,1.8,6.4,3.8,13.9.5,15,.4,5-.5,3.1-3,13.3-7.8,8.9-4.1,18.9-6.5,24.1-9.2,15.2-7.8,10.6-6.8,22.4-19.2,25.1-26.5,28.4-62.9,13.7-101.3-1.6-4-3-9.2-7.4-9.5-1.9,1.4-1,3.9-.1,6.1,6.1,15.4,14.6,28.8,6,42.8-2.3,3.7-5.7,8.6-8.5,12-13.8,16.2-19.9,32.9-24,57.6"/>
              <g id="g62">
                <path id="path60" class="st45" d="M178.4,292.2c-2.2,12.6-14.9,17.9-26,20.8-6.2,1.6-12.4,2.8-18.4,5-3.2,1.2-9,1.9-10.4,5.5-.4,1.1,0,2.7.9,3.4,5.9,4.8,17.7,4.3,23.8-.2,4.6-3.3,8.7-6.1,14.2-8.2,5.7-2.2,11.7-3.8,17.3-6.3,7.5-3.3,13.6-7.3,18.8-13.6,7.9-9.5,16.2-17.8,21.5-29.1,11.3-24,9.9-51.4,1.8-76.1-1.6-4.9-3.2-11.8-6.9-15.7-3.1-3.3-8.5-4.4-10.5.6-2,5.2,3.2,12.9,5.1,17.4,2.9,6.8,6,14.2,4.9,21.7-1.2,7.9-7.4,15-12.3,21-4.2,5.1-7.9,10.6-11,16.5-6.7,12.8-10.1,26.9-12.5,41-.8,4.4,6,6.3,6.8,1.9,3.6-21.1,9.9-39.9,23.5-56.7,6.5-8,13.1-17,12.7-27.8-.2-5.2-1.7-10.2-3.6-15-1.1-2.7-2.2-5.4-3.4-8.1-.5-1.2-4.5-8.4-3.6-9.4-1.1.3-2.3.6-3.4.9,3.1.5,3.9,4.4,4.9,7,1.4,3.8,2.8,7.7,3.9,11.6,2.2,7.6,3.8,15.4,4.4,23.3,1.1,14.4-.8,29.2-7,42.4-5.5,11.6-14.3,20.8-22.7,30.4-7.1,8.1-18.7,10.9-28.4,14.4-4.1,1.5-8.2,3.1-12,5.2-2.4,1.3-4.2,3.2-6.4,4.7-3.4,2.3-11.8,3.9-15.1,1.2.3,1.1.6,2.3.9,3.4,0-.1.1-.2.1-.3-.8.8-1.6,1.6-2.5,2.5,5.6-1.9,11.2-4,16.9-5.5,6.5-1.7,13.2-3,19.5-5.6,9.8-4.1,18.9-11.6,20.7-22.5,1.1-4.3-5.7-6.2-6.5-1.7h0Z"/>
              </g>
            </g>
            <g id="g72">
              <path id="path66" class="st45" d="M65,287.4c0,3.7,2.6,5.4,5.1,7.8,2.4,2.3,4.6,5.3,7.8,9.5,3.5,4.6,8,6.6,12.3,10.4,2.4,2.1,3.2,3.7,6.1,5,1.9.8,4.6,2.2,6.4,1.3,1.8-.9,2.3-1.9,1.1-3.5-.6-.8-9-5.3-9.9-5.8-6.4-2.9-8.1-9.5-11.1-15.3-3.4-6.6-7.8-12.2-11.6-15.2-.4-.3-4.1-.1-4.7-.1-1.4,0-.8,4.7-.8,6.1,0,1.4.9,2.7,1.7,3.9"/>
              <g id="g70">
                <path id="path68" class="st45" d="M61.4,287.4c.7,7.3,7.9,12,12.2,17.5,4.7,6.1,11.2,10.3,16.8,15.5,3.9,3.5,12.3,7.6,16.3,2.1,3.2-4.4-1.3-7.8-4.8-9.9-5-2.9-9.7-4.6-12.6-10-3.9-7.3-7.1-14.6-12.9-20.7-2.9-3.1-8-6-12.3-3.2-4.3,2.8-2.1,11.2,0,14.6,2.4,3.8,8.5.3,6.1-3.6-.7-1.1-1.1-1.9-1.2-3.2,0-.3,0-2.3,0-2.5-.7.3-1.4.7-2.1,1h1.4c.2.1,1.9.2,1.3,0,4.1,2,7.6,9.1,9.7,12.9,4,7.5,6.3,13.9,14.2,18,2,1.1,5.5,4.2,7.6,4.4.7.5.5.1-.5-1.2-.4-1.2-1.2-1.9-2.5-2.1-1-.7-2-1.2-3-2-1.7-1.5-3.2-3.1-5-4.5-4.8-3.7-8.7-7-12.4-11.8-1.2-1.6-2.4-3.1-3.8-4.6-1.7-1.9-5.1-3.9-5.4-6.7-.4-4.5-7.5-4.5-7.1,0h0Z"/>
              </g>
            </g>
            <g id="g78">
              <g id="g76">
                <path id="path74" class="st45" d="M48.9,241.8c-1.8,6.3-2.4,15.1.5,21.2,2.4,5.1,11,5.6,11.7-.9.4-3.7-1.1-7.9-1.4-11.6-.3-5.2-.2-10.4.3-15.5.5-5.5,1.5-11,2.7-16.4,1.1-4.8.9-9.9,2.2-14.6,1-3.5-3.4-5.8-5.9-3.4-12.8,11.9-13.7,30.5-12.1,46.7.4,4.5,7.5,4.5,7.1,0-1.4-14.3-1.4-31.2,10-41.7-2-1.1-3.9-2.3-5.9-3.4-.8,2.9-.9,5.7-1.2,8.6-.3,3.8-1.4,7.6-2.1,11.3-1.3,6.7-2.1,13.4-2.3,20.2,0,3.3,0,6.6.3,10,0,1.4.2,8.5,1.3,9.1,1.6.9.6-8.5.6-8.7,0-3.1.2-6.1,1.1-9.1,1.1-4.3-5.7-6.2-6.9-1.8h0Z"/>
              </g>
            </g>
            <g id="g84">
              <g id="g82">
                <path id="path80" class="st45" d="M110.8,166.1c1.9-2,6.1-1.5,8.4-2.9,2.6-1.5,3.7-4.1,2.6-7-.6-1.6-1.7-2.4-3.4-2.6-5.5-.5-10.9-.7-16.2,1.4-5.4,2.1-10,6-14.4,9.6-5.8,4.7-11.2,9.8-16.3,15.1-2.3,2.4-6.9,5.5-4.3,9.3,4.6,6.6,17.8-4.6,21.9-7.6,3.8-2.8,6.9-6.4,10.8-9,4.3-2.9,9.2-5.6,14.2-7.1,4.3-1.3,2.5-8.1-1.9-6.8-7.6,2.3-15.1,6.6-20.9,11.9-2.8,2.5-5.6,4.9-8.7,7-2.2,1.4-8.7,7.2-11.3,6.4.7.5,1.4,1.1,2.1,1.6,0-.2-.2-.4-.3-.5,0,.9.2,1.8.4,2.7,0,.2,2-1.7,2.6-2.3,1.9-1.9,3.7-3.9,5.6-5.7,3.8-3.7,7.8-7.3,12-10.6,3.6-2.9,7.4-6.1,11.8-7.7,4.2-1.5,8.8-1.1,13.1-.7-1.1-.9-2.3-1.7-3.4-2.6.7-.9.5-1.1-.5-.6-.3.1-.6.2-.9.2-1,.1-2.3.5-3.2.8-1.8.6-3.3,1.3-4.6,2.6-3.3,3.4,1.6,8.4,4.8,5.1h0Z"/>
              </g>
            </g>
            <g id="g92">
              <path id="path86" class="st45" d="M191.5,167.2c-1.9-4.4-8.1-8-12.9-9-4.7-1-10.7.6-15.5.4-5-.3-8,0-12.8-1.4-4.4-1.3-9.9-1.6-14,.6,3.9,2.6,13.2,4,19.5,4.5,11.4.7,20.9,2.8,31.7,6.7,1.1.4,1.7.6,1.9-.6"/>
              <g id="g90">
                <path id="path88" class="st45" d="M194.6,165.4c-5.1-9.8-16.2-11.5-26-10.6-6.1.6-12.1.2-18-1.3-5.5-1.3-10.7-1.2-15.9,1.1-2.5,1.1-2.1,4.8,0,6.1,8.6,5.2,19.8,4.4,29.4,5.8,6,.8,11.8,2.2,17.6,4,3.4,1.1,8.9,4.2,10.9-.5,1.8-4.1-4.3-7.7-6.1-3.6-.1.3-.2.5-.3.8.7-.5,1.4-1.1,2.1-1.6,1.1-.2-1.3-.8-1.4-.8-1.1-.5-2.2-.8-3.3-1.1-2.4-.8-4.9-1.5-7.3-2.1-4.4-1.1-8.8-1.8-13.3-2.4-8-1-17.6-.3-24.7-4.6v6.1c5-2.2,9.6-.3,14.6.6,4.1.7,8.5.9,12.7.8,8.3-.3,18.4-2.2,23.1,6.9,1.9,4,8,.5,5.9-3.6h0Z"/>
              </g>
            </g>
          </g>
          <g id="g102">
            <path id="path96" class="st51" d="M164.9,211.6c-4.7-.2-9.2,2.1-13.5,4.1-7.5,3.5-15.4,6-23.6,7.7-7.9,1.6-16.7,2.8-21.8,9-5,6.1-4.5,15.2-1.8,22.6,1,2.9,2.5,5.8,5,7.4,2.6,1.7,5.9,1.8,9,1.8,19.8-.1,41.2-4.1,54.4-18.8,4.9-5.5,8.4-12.7,7.4-20s-7.9-13.9-15.1-12.8"/>
            <g id="g100">
              <path id="path98" class="st51" d="M164.9,208.6c-9.1.2-17.3,6-25.8,8.7-7.8,2.6-16.1,3.3-23.9,5.9-15.1,5-18.9,19.9-13.2,33.9,2.9,7.1,8.1,9.9,15.6,10s15.1-.6,22.5-1.9c14.4-2.7,29-9.1,37.7-21.4,4.7-6.6,7.3-15.4,4.1-23.2-2.8-6.8-9.4-11.7-16.9-11-3.8.3-3.9,6.3,0,6,9.2-.8,13.7,8.8,11.7,16.7-1.9,7.6-8,13.9-14.3,18.1-12.2,8.1-27.4,10.4-41.8,10.8-4.7.1-9.4.4-12.1-4.2-2-3.3-2.9-7.7-3.1-11.5-.4-8.9,4.6-14.3,12.8-16.8,7.2-2.1,14.6-3,21.7-5.3,8-2.5,16.7-8.6,25.1-8.8,3.7,0,3.7-6.1-.1-6h0Z"/>
            </g>
          </g>
          <g id="g110">
            <path id="path104" class="st17" d="M279.6,293.6c-14.8,14.1-29.1,29-39.5,46.6-7.1,12-12.3,25-16.7,38.2-3.1,9.2-6,18.5-8.5,27.9-1.8,6.8-3.5,13.7-4.2,20.8-.7,6.5-5.4,27.6-5.3,34.1.3,13.5-1.6,27.7,1.1,41,3.1,15.6-.9,32,2,47.9,8.6,46.6,51.3,79.5,95.1,97.4,58.8,24,126.1,28.8,186.4,9,60.3-19.9,112.7-65.4,136.5-124.3,6.3-15.6,11.2-31.9,13.7-48.5,5.4-36.9,2.4-92.8-16.4-134.3-21.1-46.4-56-83.3-101.5-107-19.2-10-40-18.1-61.6-18.8-16.2-.5-32.1,3.1-47.8,7.1-21.9,5.6-43.5,12.1-64.9,19.4,14.4,7.6,26.9,18.7,36.2,32.1,6.4,9.3,12.8,18.7,24,20.2,9.4,1.3,18.4-5.2,27.8-4.8,5.3.2,11.4-4.9,15-1,17,18,32,23.7,48,31.6,2.9,1.4,5.9,3,7.5,5.8,2.4,4.4,3.2,9.7,3,14.7-.9,18.9,28.5,27.9,33.6,46.2,1.4,4.9-2,10.1-2,15.2,0,9.2,2.1,18.4,4.2,27.4,1.3,5.4,5.4,14.4,5.8,20,.4,6-5,8.3-6.1,14.1-2.6,14.5-2.2,28.9-4.8,43.4-.5,2.7-4,5.4-5.5,7.7-2.6,4-10.2,7.5-13.8,10.5-12.2,10-24.9,17.3-28.4,33-.8,3.7-2.5,8-5.6,10.2s-7.3,1.5-11,.8c-12.1-2.3-26.8-2.8-34.3,6.9-2.5,3.2-4.6,7.7-8.7,7.9-3.3,0-5.7-2.7-7.9-5.1-12.4-13.3-33.2-15.1-50.2-8.6-4,1.5-8.6,3.6-12.3,1.5-2-1.2-3.2-3.4-4.4-5.4-11.8-20-38.8-29.2-57.1-35.9.6-11-7.2-24.1-16.6-29.9,4.6-12.4,3.8-26.6-2-38.4-.8-1.6.3-3.2.6-5,.5-2.8.7-3.1,3-4.8,7.6-5.3,9.3-17.5,7.6-26.6-1.7-9.1-1.7-19.5,4.1-26.7,3.7,3.3,8.5-3.7,12.2-7.1,18.9-17.3,26.5-50.9,23-70.9,3.3,8.3,16.2,11.2,23.5,6.1,11.6-8.1,29.2-19.6,36.9-35.7-11.6-3.3-17.9-15.6-23.6-26.3-3.9-7.4-9-15.2-16.5-19.4-8.4-4.7-16.4-.2-24.5,3.5-18.5,8.5-34.3,22.2-49.1,36.3Z"/>
            <g id="g108">
              <path id="path106" class="st17" d="M276.1,290c-17.2,16.5-33.7,34.1-44.6,55.5-11.1,21.8-19.2,46.6-24.1,70.5-1.7,8.2-2.6,16.5-4.1,24.7-1.4,7.7-2.9,15.3-2.8,23.1,0,12.6-1.2,25.2.9,37.7,2,12.5.7,24.8,1.1,37.3,1.3,41.5,31.8,74.9,65.3,95.8,37.8,23.6,83.4,36,127.7,38.6,44.8,2.6,90.3-5.9,130.4-26.5,35.8-18.4,67.1-46.2,88.7-80.3,23.2-36.6,33.7-79.2,33.2-122.3-.6-42.7-9.9-84.6-32.1-121.4-21.2-35.1-51.8-64-87.9-83.4-21.2-11.4-44.5-20.7-68.9-21-25.4-.3-51,7.9-75.2,15-12.4,3.6-24.7,7.5-36.9,11.7-3.9,1.3-5.2,7-1.2,9.1,11.2,6,21.1,13.9,29.3,23.6,7.4,8.7,12.6,19.9,22.8,25.9,11.2,6.6,21.3,1.9,32.8-.7,2.8-.6,5.6-.4,8.4-.8,2.4-.3,4.5-1.2,6.8-1.8,2.3-.6,1.4-.6,3.4,1,1.4,1.1,2.7,2.7,4,3.9,2.5,2.3,5.1,4.5,7.8,6.6,8.8,6.9,18.4,12,28.4,16.8,4,1.9,10.7,3.8,13.2,7.6,3.4,5.3,1.6,11.9,2.8,17.6,3.6,17.5,23.9,23.6,31.7,38.3,2.8,5.3.4,9.3-.4,14.8-1,6.8.4,14.1,1.7,20.7,1.1,5.8,2.5,11.6,4.4,17.2,1.5,4.3,4.9,10.5,3.1,14.9-.8,1.9-2.5,3.5-3.5,5.4-1.2,2.1-1.7,4.3-2.1,6.7-1.3,7.3-1.7,14.7-2.3,22.1-.3,3.8-.6,7.6-1,11.3-.3,2.9-.3,6.6-1.7,9.2-2.6,4.9-7.7,8.3-12.2,11.2-8.8,5.7-18.1,12.7-25.1,20.6-3.2,3.6-5.9,7.6-7.8,12.1s-2,13.6-8,14.3c-4.9.5-10.5-1.7-15.5-2-5.4-.3-11.2,0-16.3,1.7-4.6,1.6-8.7,4.1-11.8,7.9-1.3,1.6-2.3,3.6-3.8,5.1-2.7,2.8-4.8-1.4-6.8-3.4-8.6-8.4-20.5-12.5-32.4-12.7-6.3,0-12.8.9-18.8,2.9-2.9.9-6,2.8-9.1,3.1-3.8.4-5.2-4.6-7-7.2-13.5-19-36.8-27.1-57.8-34.8,1.2,1.6,2.4,3.2,3.7,4.8.3-13.6-7.8-26.9-19.1-34.2.8,1.9,1.5,3.8,2.3,5.6,3.3-9.5,4-19.6,2-29.4-.5-2.4-1.2-4.8-2-7.1-.6-1.6-1.8-3.5-1.8-4.9-.1-4,3.5-5,5.8-8,5-6.3,6.6-14.9,6-22.7-.7-9.9-3.6-19.3,2.9-28.1-2.3.6-4.6,1.2-6.8,1.8,7.9,5.2,15.3-4.7,20.2-9.7,6.5-6.5,11.3-14.5,15-22.9,6.8-15.8,10.2-33.9,7.4-51-3,1.3-6.1,2.6-9.1,3.9,2.8,6.1,9,9.8,15.6,10.8,7.4,1.1,13-1.6,18.9-5.8,13.4-9.4,27.2-19.7,34.7-34.7s.2-6.3-3-7.3c-11.4-3.7-16.3-16.4-21.7-25.9-5.7-10.2-15-22.3-28-21.9-6.7.2-12.8,3.4-18.7,6.2-6.2,2.9-12.1,6.3-17.8,10.1-12.4,8.1-23,17.5-33.2,27.2-4.7,4.4,2.4,11.5,7.1,7.1,9.4-8.9,19.1-17.6,29.8-24.9,5.4-3.7,11.1-7,17-9.8,5.4-2.6,12.6-7,18.8-5.2,10.8,3.2,15.9,17.2,20.9,26,5.3,9.2,12,17.7,22.5,21-1-2.4-2-4.9-3-7.3-5.9,11.8-16.1,20.4-26.7,28-3.9,2.8-8.4,7.2-13.4,7.7-4.8.5-9.7-1.6-11.8-6.1-2.5-5.5-10-1.3-9.1,3.9,2.2,13-.4,26.9-4.8,39.2-2.4,6.6-5.6,13-9.7,18.7-2.1,3-4.6,5.6-7.2,8.1-1.1,1.1-6.1,6.3-6.1,6.3-2.4-1.6-5.3-.3-6.8,1.8-5.8,7.7-6.5,17.6-5.2,26.8,1.1,8.1,2.4,18-4.3,24.3-2.8,2.6-4.6,3.7-5.6,7.5-.5,1.7-1.2,3.9-1.2,5.7s1.5,4.8,2.4,7.1c3.8,10.2,3.6,21,0,31.2-.8,2.1.5,4.5,2.3,5.6,8.3,5.4,14.3,15.5,14.1,25.6-.1,2.3,1.6,4.1,3.7,4.8,19.7,7.2,42.5,14.8,54.1,33.6,2.8,4.5,5.9,8.5,11.7,8.8,6.6.3,12.9-3.7,19.2-5.1,11.4-2.4,24.4-.8,33.6,6.8,3.9,3.2,6.8,8,12,9.3,5.4,1.3,9.7-1.9,12.7-6,3.4-4.6,6.3-7.8,12.1-9.2,5.4-1.3,11.4-.9,16.8,0,5.4.8,11.2,2.6,16.4,0,5.3-2.8,7.6-8.4,9.1-13.9,3.2-11.9,11.8-18.8,21.2-26.2,8.6-6.7,18.2-11.8,24.5-21,3.5-5,3.3-12.7,3.8-18.6.7-7.5,1-15.1,2-22.6.4-3.3.6-6.7,2.3-9.6,1.2-2,2.7-3.7,3.6-5.9,2.2-5.1.8-10.3-.8-15.4-1.7-5.2-3.6-10.3-4.8-15.7-1.8-7.6-4.2-16.3-3-24.2.8-5.6,3.1-10.1,1.3-15.8-1.5-4.7-4.3-8.7-7.5-12.4-5.9-6.7-13.5-11.8-19.6-18.4-2.7-2.9-5.2-6.3-5.9-10.3-1-6,0-11.4-2.5-17.3-4.2-10.2-17.6-13.5-26.7-18.2-5.6-2.9-11.1-6.1-16.2-9.9-3.3-2.4-6.3-5-9.3-7.8-2.6-2.5-5-5.9-8.3-7.3-5.5-2.4-11.5,1.2-17.1,1.6-7,.4-13.1,3.4-19.8,4.6-15.4,2.8-22.8-13.8-30.7-23.8-9.1-11.4-20.5-20.8-33.3-27.7-.4,3-.8,6.1-1.2,9.1,23.5-8,47.3-15.2,71.5-21.1,12.4-3,25.1-5.5,37.9-5.3,11.6.2,23.1,2.6,34.1,6.4,38.2,13,72.7,38.4,97.9,69.7,25.8,32.2,40.7,70.4,45.2,111.3,4.6,41.3.6,82.6-16.6,120.7-33.4,74.2-109.6,121-189.5,126.6-44.7,3.1-90.9-5-131.7-23.5-33.4-15.1-67.3-39.7-80.4-75.4-3.7-10-5.3-20.1-5.2-30.8.1-5.9.4-11.7.4-17.6-.1-6.1-1.1-11.9-1.9-18-1.7-11.8-.4-23.9-.4-35.7s1.7-14.1,3-21c1.5-8,2.3-16.2,4-24.1,2.6-12,6.2-23.8,10.1-35.4,7.4-22.1,17.2-42.5,32.4-60.4,7.2-8.4,15.1-16.3,23.1-24,4.4-4.3-2.7-11.3-7.3-6.9Z"/>
            </g>
          </g>
        </g>
        <g id="membrane" class="st35">
          <path id="path113" class="st5" d="M301.2,265.7c-50.5,30.1-75.3,75.3-92.1,129.8-15.8,51.5-13,116.1-7.6,159.1,1.6,13.3,12.2,31.6,19.6,42.9,11.5,17.6,29.1,28.4,47.5,38.6,33.5,18.7,70.8,32.1,108.6,38.2,22.2,3.6,44.8.2,67.1-2.3,81.9-9.4,109.8-32.1,128.7-50.6,65.7-63.9,85.2-134.3,74.4-210.7-8.5-60.2-47.1-117.8-94.4-156-23.3-18.8-49.9-30.2-79.5-35.1-21.5-3.6-43.5-1-64.8,3.5-39.5,8.4-106.5,42-107.5,42.6Z"/>
        </g>
        <g id="nuclei" class="st35">
          <g id="g120">
            <g id="g118">
              <path id="path116" class="st25" d="M456.9,647c10,3.5,21.7,2.3,30.7-3.2,5-3,9.6-7.4,11.1-13.3,1.6-6.3-.8-13.4-5.5-17.8-9.3-8.9-22.9-5.7-32.7.4-5.3,3.3-9.7,7.7-10.8,14.1-1.2,7,1.8,12.7,7.5,16.8,5.1,3.6,12.8.9,15.7-4.1,3.4-5.8,1-12.1-4.1-15.7-.3-.2-.7-.5-1-.7,1.4,1.4,2.8,2.8,4.1,4.1,1.9,2.7-3.2,6.6.8,5.1,1.4-.5,2.8-1.6,4.2-2.2.4-.2,2-.5,1.8-.2-1.1,1.8-4.4-7.9-1.4-7.1-.1,0-2.2,1.5-2.6,1.7-1.3.6-2.9,1.1-4.4,1.3-2.5.3-4.8-.3-7.3-1.2-5.9-2-12.6,2.3-14.1,8-1.7,6.2,2.1,11.9,8,14h0Z"/>
            </g>
          </g>
          <g id="g126">
            <g id="g124">
              <path id="path122" class="st25" d="M530.7,596c.8,6.4,3.3,11.9,9,15.4,5,3.1,11.1,3.8,16.7,2.1,12.9-4,20.7-19,13.1-31-5.7-9.1-17.1-13.3-27.4-10.5-13.3,3.6-18.4,18.6-10.6,29.8,3.5,5.1,10.1,7.4,15.7,4.1,5.1-3,7.7-10.6,4.1-15.7-1.6-2.3-.4.8-2.3,3.4-.8,1.1-2,.4-.3.4-1.3,0-1.2,0,.2,0-1.2-.3-1.2-.2.2,0,1.3.4,1.4.4.3,0,1,.7,1.2.8.6.3-.6-.4-.4-.3.4.6l-.6-.6c-.6-1.6-.5-2.8.5-3.6-1,.9-1.2,1.2-.7.7s.4-.3.7-.3c-1.4.4-1.6.5-.6,0,1.4,0,2.4.3,3.1,1.2.7,1,1,2.1,1,3.3-.8-6.2-4.7-11.5-11.5-11.5-5.7,0-12.4,5.3-11.6,11.5h0Z"/>
            </g>
          </g>
          <g id="g132">
            <g id="g130">
              <path id="path128" class="st25" d="M364.4,649.8c10.5,5.5,24,5.8,32.9-3.1,8.9-9,8.8-22.6.5-31.9-4.5-4.9-10.5-8.2-17.3-6.2-4.8,1.4-9.8,5.4-13.6,8.5-10,8.2-10.4,23.4.7,30.7,5.2,3.4,12.7,1,15.7-4.1,3.3-5.6,1.1-12.3-4.1-15.7,3.7,2.4,2.5,3,2.9,5.4.3,1.4-.7,1.1.4.5-.1,0,2-1.2,2.6-1.6.6-.4,5-2.6,2.5-1.8h-6.1c-2.2-1.7-2.7-2-1.5-1l1.5,1.5c-.1,0-.1-.3-.2-.4-.8-.5,1.2-3-.2-.3.8-1.4-1,1-.2.3,1-1-.9.3-1.4.3-1,0-2.1-.3-3.4-1-5.5-2.9-12.5-1.4-15.7,4.1-3.2,5.2-1.6,12.9,4,15.8h0Z"/>
            </g>
          </g>
          <g id="g138">
            <g id="g136">
              <path id="path134" class="st25" d="M287,620.7c8.5,7.9,21.2,11.1,31,3.4,9-7.1,10.3-20.9,3.9-30.3-3.1-4.6-7.4-8.2-12.8-9.9-5.9-1.9-11.9,0-17,3.2-10.3,6.2-16.1,19.2-9.3,30.2,7.8,12.5,27.7,1,19.9-11.6,1,1.6-1.1,2.3,1,1.3.8-.5,1.6-.9,2.4-1.2-1.2.7-2.5.7-4,0-.6-.6-.4-.5.6.5q-.4-.5,0,.2c.1.2.1,1.7.2.7.2-1,.1-.7-.2.7,0-.6.2-1,.8-1.3-.4.2,2.5-2,2.3-.8-.2.9-2.7-1.6-2.5-1.4-10.9-10-27.2,6.2-16.3,16.3h0Z"/>
            </g>
          </g>
          <g id="g144">
            <g id="g142">
              <path id="path140" class="st25" d="M248,575c8.3-5.6,14.1-14.2,14.4-24.5.2-9.7-4.7-21.3-14-25.4-10.6-4.7-20.9,3.6-23.6,13.7-2.4,8.9,0,19.4,3.3,27.8,2.3,5.8,7.7,9.8,14.1,8,5.5-1.5,10.3-8.3,8-14.1-1.3-3.3-2.5-6.8-3.1-10.4-.3-1.8-.4-3.8-.2-5.6-.1.9.1.7.3-.7-.2,1.9-1.8,2.2-4.7,1.1-7.9,1.1-2.6.7-3.2,5.7-.2,1.9-1.4,3.6-3,4.6-5.2,3.4-7.4,10.1-4.1,15.7,3,5.1,10.6,7.6,15.8,4.1h0Z"/>
            </g>
          </g>
          <g id="g150">
            <g id="g148">
              <path id="path146" class="st25" d="M218,497.3c9.6,3.1,20.4,2.1,29.2-2.9,10.8-6.1,14.3-20,3.4-28-7.5-5.6-20.2-6.5-29.2-4.6-5.3,1.1-9.7,4.6-11.8,9.6-2.4,5.8-.9,11.4,1.5,16.9,2.5,5.7,10.8,7,15.7,4.1,5.9-3.4,6.6-10,4.1-15.7.7,1.7-2.1,8.4-4.6,7.5,1.4.6,4.1,0,5.6,0s3,.7,3.8.4c1.4-.5.8.6.1-.8-.5-1.9-1-3.9-1.6-5.8,3.3-4.1,4-5.4,1.9-4-.7.4-1.4.8-2.1,1.2-.9.4-2.5.7-3.4.8-2.4.3-4.4-.3-6.7-1-13.9-4.3-19.9,17.9-5.9,22.3h0Z"/>
            </g>
          </g>
          <g id="g156">
            <g id="g154">
              <path id="path152" class="st25" d="M226.2,429.8c6.2,6.7,16.6,13.4,25.5,7.7,7.2-4.6,11.3-15.5,9.2-23.8-1.4-5.5-5.2-9.4-10.5-11.4-2.8-1.1-6.1-1.4-9.1-1.9-6.2-1-11.9.4-15.8,5.5-2.6,3.4-3.8,8-3.4,12.2.7,6,4.8,11.8,11.5,11.5,5.6-.3,12.2-5.1,11.5-11.5-.1-.5-.1-1.1-.1-1.6-.3,1.7-.4,1.9-.1.7-1.6,4.1-4.5,5.9-8.8,5.5.7.1,1.4.3,2.1.4,1.4.2,2.8.7,4.1.8,2.6.8,1.5-.2-3.1-2.9-.7-3.7-1-4.6-.9-2.5.3-1.5.2-1.7,0-.3-.2.6-.3,1.2-.5,1.7.6-1.4.7-1.5.1-.4.9-1.3,2.2-2.2,3.9-2.6,5.4,1.1,6.8,1.1,4.3-.2-1.1-.8-1.2-.8-.4-.1-1.2-.9-2.2-2-3.2-3.1-4.1-4.4-12.2-4.4-16.3,0-4.3,4.8-4.3,11.5,0,16.3h0Z"/>
            </g>
          </g>
          <g id="g162">
            <g id="g160">
              <path id="path158" class="st25" d="M258.3,356.9c4.6,6.8,11.7,10.5,19.9,9.7,9-.8,16-6.8,21.1-13.9,5.8-8,4.3-15.7.6-24.1-3.4-7.7-7.7-16.2-17-17.5-8.5-1.1-17.3,5.4-22.8,11.4-6.2,6.8-8.7,14.9-6.8,23.9,1.8,8.6,7,17.8,17.2,16.5,9.7-1.2,13.8-11.5,18.2-18.9,7.5-12.8-12.3-24.4-19.9-11.6-1.2,2-2.4,4-3.5,6-.5.9-1,1.7-1.5,2.6-1.9,2.6-1.1,2.5,2.2-.4h6.1c-.4-.1-.7-.1-1.1-.2,1.7,1,3.4,2,5.1,3,.6.5.5,1.9.4.3-.1-.8-.7-1.7-.8-2.5-.1-1.5.1-1.6.2-1.7,1.1-2,3.7-3.4,5.4-4.8.5-.3,1-.6,1.5-.9-2.4-.7-4.8-1.5-7.3-2.2-.2.4,1.7,3,1.9,3.4,1,1.8,1.7,3.9,2.7,5.7,2,3.5-.4-1.8.9-1.8,0,0-1.2,1.8-1.4,1.9-1,1.2-2.1,2.2-3.3,3,.9-.7-.4.8-.8.1-.3-.6,3.5,3,2.5,1.5-3.5-5.1-10.1-7.4-15.7-4.1-5,2.8-7.5,10.4-4,15.6h0Z"/>
            </g>
          </g>
          <g id="g168">
            <g id="g166">
              <path id="path164" class="st25" d="M336.5,284.5c2.8-.8-.3-.5,1.2-.2.7.1,1,.6,2.1.9,1.1.2-.2.1-.3-.9-.1-2,.3-4.2,2.2-5.4,1.1-.7,1.7-.2,2.7-.6,1,.5.9.3-.3-.3.2.1.4.2.5.3-1.2-1.1-.4-.1-1.2-1.6-.8-1.7-1.1-2-1.6-3.3-2.3-5.7-7.7-9.8-14.1-8-5.5,1.5-10.4,8.4-8,14.1,3.2,7.8,6.8,15.5,14.8,19.5s17.5,2.6,23.4-4c6.8-7.6,5.2-19.2-1.7-26-6.6-6.5-16.9-9.2-25.8-6.6-6,1.7-9.7,8.1-8,14.1,1.6,5.9,8.1,9.8,14.1,8h0Z"/>
            </g>
          </g>
          <g id="g174">
            <g id="g172">
              <path id="path170" class="st25" d="M405.7,272.1c10.9,4.9,23.3,3.1,30.5-7.1,6.3-8.9,6.1-24.3-4.6-30-10.3-5.4-22.6.5-30.4,7.7-4,3.7-7,8.7-6.9,14.3.1,6.9,4.8,13.2,11.6,14.8,6,1.4,12.5-1.9,14.1-8,1.6-5.8-2-12.7-8-14.1.2.1.5.1.7.2,1.4,1.4,2.8,2.8,4.1,4.1,1.1,2.8.9,4.9-.8,6.4.3-.3.6-.6.8-.9-2.4,1.2,4.6-3.2,2.4-1.9,4.3-2.7,5.5-.3-1.3-4.9-.2-.1-.6-1.5-.5-1.4.8.3-1.5,1.6-.3.8.5-.4.8,0-.2,0-1.4-.1,0,.1.3.3-5.7-2.5-12.4-1.6-15.7,4.1-2.8,4.8-1.5,13.1,4.2,15.6h0Z"/>
            </g>
          </g>
          <g id="g180">
            <g id="g178">
              <path id="path176" class="st25" d="M480.1,276.8c2.7,6.2,6.3,11.9,12.1,15.6,6.4,4,14.5,4.5,21.1.9,12.3-6.6,18.1-23.3,10.1-35.4-8.2-12.4-24.9-11.6-36.8-5.4-7.4,3.8-10.4,12.7-6.1,20.1,3.6,6.2,11.5,9.4,17.9,11.9,5.8,2.3,12.6-2.5,14.1-8,1.8-6.6-2.3-11.8-8-14.1-2.1-.8-4.6-2.2-5.9-3.7,1,1.7,2,3.4,3,5.1,0,1-.1,2-.1,3.1-1,1.7-2,3.4-3,5.1-2,1.2-1.9,1.3.1.4,1-.4,2.1-.7,3.2-1,1.2-.3,1.9-.2,3.1-.3-1.7.3.8-1.2-.8-.1.4-.3-2.1,3.5-1.6,2.2-.1.3,1.7.2,1.4-.5-1.3-2.5-2.7-4.9-3.9-7.5-2.5-5.7-10.8-7-15.7-4.1-5.9,3.4-6.7,10-4.2,15.7h0Z"/>
            </g>
          </g>
          <g id="g186">
            <g id="g184">
              <path id="path182" class="st25" d="M573.7,340.6c-.3,2-2.5,2-.3,1.1-.5.2,1.5-.8,1.2-.6,1-.5,2.4-.8,3.4-.9,3.6-.4,1.6,1,1-.9.5,1.3.8,2,.9,3.4,0,1.1-.9,1.6-2.5,2.2-.4.1-2.5.4-2.6.7-.3.6,1.5-.3,1.6.3,0,.6-.8-1.1-.8-1.1-.5-4.7-2.6,5.7-.8,3.2-1.4,1.4-2.8,2.8-4.1,4.1,2.4-1.8-2.1-.2-.2-.2s-6.6,1.5-3.9-7c-1.9,5.9,2.2,12.6,8,14.1,6.2,1.7,12.2-2.1,14.1-8,7.2-22.3-31.1-31.4-36.1-9.4-2.1,8.9,4.1,18.4,11.1,23.3,7.6,5.4,17.2,3.9,25.1-.1,15.5-7.6,19.2-29.7,6.4-41.8-6.7-6.3-16.8-7.2-25.3-4.7-7.3,2.1-17,7.8-18.3,16.1-1,6.1,1.6,12.4,8,14.1,5.4,1.6,13.1-1.8,14.1-7.9h0Z"/>
            </g>
          </g>
          <g id="g192">
            <g id="g190">
              <path id="path188" class="st25" d="M585.3,436.4c10.2,7,24.8,6.9,34.9-.4,11.9-8.7,16.2-28.1,2-37.3-12.4-7.9-24.8-1.3-35.1,6.4-6.6,4.8-12.3,10.5-10.3,19.5.7,3.1,2.4,6.2,4.7,8.5s2.9,2.4,4.5,3.2c1,.5,6.2,3.2,2.6.3,4.9,3.9,11.5,4.7,16.3,0,4-4,4.9-12.4,0-16.3-1.6-1.2-6.5-5.5-8.7-4.7,2.3,1,2.8,2.9,1.3,5.7-1.4,4.5-1.1,5.7,1.1,3.6.9-.5,1.8-1.4,2.7-2,2.1-1.6,4.4-3.7,6.9-4.6,0,0,2.2-.4,1.1-.2,1.4-.3,1,.5.8.1,0,0-3.2-2.5-1.8-2.5s-3.3,2.5-3.3,2.5c-2.5,1-5.3.3-8.2-1.7-5.1-3.5-12.8-1-15.7,4.1-3.3,5.8-1,12.3,4.2,15.8h0Z"/>
            </g>
          </g>
          <g id="g198">
            <g id="g196">
              <path id="path194" class="st25" d="M578.9,519c6.5,8,15.9,18.2,27.4,15.6,10.2-2.4,18.2-15.1,17.6-25.2-.7-12.4-12.1-18.6-23.4-19-12.8-.4-24,7.8-24.7,21-.3,6.2,5.5,11.5,11.5,11.5s11.2-5.3,11.5-11.5c0,1.6-.9,1.3,0,2,.3.3,2.8,0,3.5,0-1.1-.2,1,.9.8.4,0,.2-2.8-3.5-2.1-3.4,0,0-1.5,2.2-1.6,2.4,0,.2.3-.4.2-.3h6.1c-4.2-.8-7.8-6.5-10.4-9.7-3.9-4.8-12.2-4.1-16.3,0-4.7,4.6-3.9,11.2,0,16.1h0Z"/>
            </g>
          </g>
          <g id="g204">
            <g id="g202">
              <path id="path200" class="st25" d="M199.3,292.4c6-5.7,11.3-12.3,15.2-19.6,3.9-7.3,9.7-18,3.1-25.4-3.2-3.6-8-4.8-12.6-3.3-5.2,1.7-8.2,6.6-11,11-4.9,7.8-8.7,16.3-11.6,25.1-4,12.2,15.3,17.5,19.3,5.3,1.5-4.6,3.3-9,5.5-13.3,1.9-3.7,4.1-8.8,7.4-11.4-1.5.9-2.9,1.7-4.4,2.6.4-.1.8-.3,1.2-.4h-5.3c.4.1.7.2,1.1.3-1.5-.9-2.9-1.7-4.4-2.6.2.3.4.5.6.8-.9-1.5-1.7-2.9-2.6-4.4-.7-3.6-.3-1.8-1,0-.4.9-.8,1.8-1.2,2.8-1.1,2.4-2.4,4.7-3.9,7-2.7,4.3-6,8-9.7,11.5-9.2,8.7,5,22.8,14.3,14h0Z"/>
            </g>
          </g>
        </g>
        <g id="sketch" class="st35">
          <g id="g293">
            <path id="path207" class="st60" d="M212.4,224.9c-.1-.6,0-1.1.5-1.5,1.2-.4,1.8-1.2,2-2.4.8-5.6,1.1-11.1-.7-16.5-.8-2.6-1.6-5.2-3.2-7.4-2.9-4.2-3.7-9.3-5.3-14-.9-2.5.1-4.8.8-7.1.4-1.4,1.7-1.3,2.8-1,2,.9,4.2,1.5,6,2.9,4,6.3,6.4,13.3,8.9,20.2.5,1.2.9,2.5.5,3.8-.8.7-.8,1.6-.4,2.3,2,3.7,2.7,7.8,2.9,11.9.9,5.6,2,11.3,1.9,17,0,3.3,0,6.7-.7,9.9-1.4,6-2.6,12.1-5.5,17.7-1.2,2.3-1.9,4.8-2.9,7.2-1.7,4-3.8,7.8-6.2,11.4-1.1,1.3-1.8,2.9-3,4.2-3.6,6.6-8.8,11.8-14.2,16.8-3.5,3.3-7.1,6.6-11.5,8.4-4.3,1.7-8.5,3.8-12.8,5.4-3.1,1.1-6.2,2.1-9.4,2.9-.3.3-.7.6-1,.9-2,1.7-4.3,2.8-6.2,4.5-2.8,1.4-5.4,3.3-8.1,4.9-4.9,2.7-10,3.9-15.5,2.1-.5-.2-.9-.4-1.4-.6-1.3,0-2.3-.9-3.6-1-1.4-.1-2.1-1.8-2.3-3.2-.2-1.3.5-2.1,1.9-2.7,1.7-.7,3.6-.7,5.1-1.6,2.1-.5,3.5-2.1,5.3-3,5.4-2.8,11.1-4.5,17.2-4.9.6,0,1.3-.4,1.9-.5,1.5-.5,3.4.1,4.5-1.7,3.4-1.3,6.1-3.4,8.5-6,.3-.4.7-.7,1.3-.8,2.3-.5,3.8-2.2,5.3-3.8,3-.2,3.2-2.4,3.4-4.6,1.1-2.2,1.4-4.7,2.4-7,.9-2.1,1.7-4.2,1.6-6.6-.2-3.1,1.6-5.5,2.5-8.3,1-3.1,1.9-6.2,3-9.2.9-2.4,1.5-5,3.2-7.1.4-.4.9-.8,1.1-1.2,1.9-6.2,7.3-10.1,10.6-15.4,3-5,6.1-10,8.8-15.3Z"/>
            <path id="path209" class="st49" d="M96.2,175.4c-1.2.5-2.5.9-3.7,1.4-3.9,3.6-7.6,7.3-11.7,10.6-3.1,2-6.4,3.1-10.2,2.7-3.3-.3-4-1.5-2.9-4.6,1.2-3.5,4-5.6,6.6-7.8,6.8-5.7,13.3-11.7,19.8-17.7,2.6-2.5,5.6-4.6,9.2-5.7,4.6-1.6,9.4-1.4,14.1-.9,1.7.1,3.4.1,4.4,1.8,1.2,4.2-2.1,5.7-4.6,7.6-3.1,2.3-6.9,3-10.3,4.6-.8.4-1.6.6-1.7,1.6-1.3.8-2.3,2.3-4.1,2.4-2.3.4-3.5,2.3-4.9,4Z"/>
            <path id="path211" class="st49" d="M181,169.1c-1.8-.3-3.7.5-5.4-.6-4.3-2.6-9.3-2.8-14.1-3.5-5.7-.8-11.6-1.6-17.4-1.3-4.1.1-7.4-1.4-9.9-4.6-1.5-1.9-1.1-3.5,1-4.8s4.5-1.2,6.8-1.3c1.8-.1,3.6.1,5.3-.2,4.3.8,8.5,1.4,12.8,2,5.8.8,11.7.4,17.5-.1h0c3.5.2,6.9.6,9.8,2.8,2.5,2.2,5.6,3.9,7.1,7.3,1.1,2.5,1,4.4-1.5,5.8-2.4,1.4-4.8,1-7.3.1-1.6-.7-2.9-2.1-4.7-1.6Z"/>
            <path id="path213" class="st57" d="M71.2,299.8c-4-1.4-6.8-4.1-8.8-7.8-1.8-3.3-1.5-6.9,0-9.9.6-1.3,1.8-2.8,2.6-4.2.5-.8,1.3-1,2.2-1.1,6-.8,10.2,1.8,12.7,7.2,1.6,3.6,3.8,6.8,6.6,9.6,1.4,1.5,2.3,3.3,2.7,5.1.4,1.8,1.1,3.3,1.9,4.9,0,.4,0,.8-.2,1.2-1.3.9-2.5.4-3-.9-2.7-7.6-8.8-13.2-12.3-20.4-1.2-2.5-4.6-4-7.1-3.4-1.6.4-4,4-3.9,6.1.2,3.8.8,7.3,5.2,8.6,1.7.5,3.4,1.8,2.8,4.2-.3.7-.9.8-1.4.8Z"/>
            <path id="path215" class="st20" d="M213.1,279c2.5-4.2,5-8.3,6.9-12.8,3-7,5.7-14.1,7.4-21.4,1-4.3,1.2-8.9.9-13.4-.2-5.2-1.3-10.4-2-15.6.7-1.2,1.1-.6,1.6.2,1.6,3.2.7,6.8,1.5,10.1,1.1,5.2.6,10.5.1,15.7-.5,4.5-1.8,8.9-3.4,13.2-2.6,7-5.6,13.9-8.9,20.6-.6,1.2-1.5,2.3-2.3,3.5-.7.2-1.3.6-1.8-.1Z"/>
            <path id="path217" class="st47" d="M63.7,199.1c2.4.8,3.3,2.3,2.6,4.6-2.2,7.5-3,15.3-4.3,23-.7,4.1-1.7,8.2-.9,12.5.2,1.1.8,3.4-1.1,3.4s-1-2.2-1.1-3.4c-.5-7.1,1.2-13.9,2.3-20.8.6-3.8.7-7.7,2.7-11.3,1.2-2.2,1.3-5.3-.2-8Z"/>
            <path id="path219" class="st43" d="M57,266.5c-4.6.5-8.4-2.4-8.6-6.8-.2-5-.8-10-1.3-15.1-.7-7.4-1.8-14.8-.6-22.3.9-.2.7-2.2,2.2-1.5-1.2,3.6-.4,7.3-.9,11-.5,3.3,1.2,6.5,1.2,9.9,0,5.9,1.3,11.8,1.3,17.7s2.4,5.6,6.9,6.4c.2.3,0,.5-.2.7Z"/>
            <path id="path221" class="st42" d="M103.6,154.6c-6.2,2.5-10.5,7.4-15.3,11.8-5.4,5-11.1,9.7-16.7,14.5-1.7,1.4-2.9,3.2-3.6,5.3s0,3.2,2.3,3.4c3.1.2,6-.2,8.5-2,.5-.4,1-.9,1.7-.6,0,.9-.9,1.3-1.4,1.7-3.3,2.7-7.1,2.1-10.7,1.4-2.4-.5-2.2-2.4-1.5-4.4,1.4-4,4.6-6.4,7.6-9,4.6-4,9-8.3,13.7-12.2,4.9-4.1,9.1-9.3,15.8-10.8.2.3,0,.6-.4.9Z"/>
            <path id="path223" class="st32" d="M147.5,153.1c-1.9,1-3.9.4-5.8.5-1.6.1-3.2,0-4.7.6-3.3,1.3-3.6,3.3-1.1,5.9,2.7,2.7,6.1,2.6,9.4,2.8,8.7.5,17.3,1.3,25.8,3.2,1.5.3,3,1,4.5,1.5.9.3.4.6,0,.9-3.9-1.1-7.9-1.9-12-2.5-6.6-1.1-13.1-1.8-19.8-1.5-4.6.2-8.3-2.2-10.9-5.9-2-2.8,1.4-5.7,4.5-6,3.4-.4,6.9-.7,10.3-.2.1.3.1.5-.2.7Z"/>
            <path id="path225" class="st53" d="M71.2,299.8c.3-.3.7-.5,1-.8,1.5-.9,2.4-.1,3.2,1.1,3.5,5.5,8.5,9.7,12.5,14.7,2.5,3.2,6.3,5,10.1,6.4,3.4,1.3,5.4.5,7.3-2.5.8-.6,1.6-1,2.5-.3,2,3.9-.2,4.4-3.5,5.8-1.5.7-3.4.6-5,.1-6.8-2.2-13-5.4-17.3-11.5-1.3-1.9-3.1-3.4-4.8-5-2.3-2.2-4.1-5.1-6-8Z"/>
            <path id="path227" class="st8" d="M171.7,313.7c3.6-1.6,7.2-3.4,10.9-4.8,7.1-2.7,12.2-8.1,17.4-13.3,3.8-3.8,7.4-7.7,9.9-12.4.7-.2,1.2,0,1.4.7-4.3,7.7-10.5,13.7-16.9,19.5-4,3.6-8.7,6.2-13.8,7.9-3.1,1-5.7,3-8.9,3.7-.8-.4-.6-.8,0-1.3Z"/>
            <path id="path229" class="st28" d="M208.6,175.1c-2.2,1.7-3.2,4.8-2.3,7.7,1.7,5.1,3.4,10.2,5.9,15,3.6,6.7,5.8,14.1,3.4,22-.1.4-.1.9-.1,1.4.2,2-.7,2.7-2.6,2.1,2.5-3.2,1.8-7.1,1.7-10.6-.1-6.5-2.3-12.6-5.6-18.3-2.6-4.4-3.7-9.4-4.1-14.4-.2-1.9.9-3.8,1.7-5.6.6-1.5,1.5-.3,2.3-.1.1.2.1.3,0,.5-.2.3-.3.4-.3.3Z"/>
            <path id="path231" class="st73" d="M182.1,288.7c-.5,2.2-1.1,4.4-1.6,6.7-2,1.2-1.8,4.1-4,5.1-1.5,1.6-3.1,3-5.3,4-1.8.9-3,3.1-4.9,4.1-1.6.9-3.1,2.1-5.1,2.2-1.8.7-1.9.6-2-.8,3.3-1.5,6.4-3.4,8.9-6.1.3-.3.7-.7,1.1-.9,6.1-2.4,8.3-8.1,11.3-13.1.1-1,0-2.4,1.6-1.2Z"/>
            <path id="path233" class="st18" d="M212.4,224.9c.2,2.7-1.4,4.7-2.6,6.8-2.6,4.6-5.4,9.1-8.6,13.3-1.1,1.4-2.1,2.8-3.3,4.1-1.7,1.8-3.7,3.5-4,6.2-.1.8-.7,1.5-1.5,1.9-1.3-.5-.1-1.2-.2-1.8,2.3-6.3,7.3-10.9,11.1-16.1,2.4-3.2,3.5-7,5.9-10.1,1.1-1.4,1.8-3.1,3.2-4.3Z"/>
            <path id="path235" class="st71" d="M192.1,255.5c.1.6.1,1.2.2,1.8-2.3,4.7-4,9.6-5.4,14.5-1,3.4-2.9,6.6-2.7,10.2.2,2.6-.9,4.6-2.1,6.7-.8,0-1.3.5-1.6,1.1,1.6-6,2-12.2,4.8-18,1.9-3.8,2.9-8.1,4.3-12.1.5-1.5,1.1-3.2,2.5-4.2Z"/>
            <path id="path237" class="st29" d="M223.9,201.7c.5-1.2,0-2.3-.4-3.5-2.3-6.8-5.9-12.9-8.5-19.6.4-.4.8-.3,1.3-.1,3.6,3,4.7,7.4,6.1,11.6,1,3.2,2.1,6.3,3.1,9.5.3,1.1,1,2.4-.5,3.2-.9.2-1.4,0-1.1-1.1Z"/>
            <path id="path239" class="st66" d="M181,169.1c.3-2,1.5-.8,2.2-.4,1.8.9,3.6,2,5.7,2.1,2,.1,3.7-.6,4.9-2.2.3-.3,2.3-2-.6-1.8-1.2.1-.6-1.1-.5-1.8.4-1.9-1-4.1-1.8-3.9-3.3.8-2.4-2.3-3.7-3.3-.1-.3,0-.5.3-.6,3.2,1.4,5.3,4,7.3,6.7,1.1,1.4,1.8,3,.8,4.8-1.1,2.1-2.9,3.1-5.1,3.3-3.4,0-6.4-1.5-9.5-2.9Z"/>
            <path id="path241" class="st7" d="M105.2,168.9c-.5-.1-.9-.1-1.7-.2,1.6-1.7,3.6-2.5,5.5-3.1,3-.9,5.9-2.1,8.2-4.1,1.8-1.5,3.9-3.2,4-6.1.3-.5.3-1.3,1.1-1.3,1.1,1.9.4,4,.3,6,0,.7-.6,1-1.2,1.3-5.3,2.8-10.7,5.3-16.2,7.5Z"/>
            <path id="path243" class="st75" d="M147.5,153.1c.1-.2.2-.5.2-.7,4,.7,8.1.5,12.2,1.7,4.6,1.3,9.8.5,14.7.3,1,0,2-.4,3,.3-.3.8-.9.8-1.6.9-8.9.7-17.8,0-26.6-1.3-.7-.3-1.3-.9-1.9-1.2Z"/>
            <path id="path245" class="st22" d="M156.3,312.5c-5.1.4-10,1.9-14.9,3.4-3.3,1-6.2,3.2-9.3,4.9-.8.1-1.2-.2-.8-1,3.1-.5,5.1-3.2,8-4.3,4.5-1.6,8.9-3.3,13.6-3.6,1.9-.1,3.5-1.1,5.4-1.3.3,1.6-1,1.6-2,1.9Z"/>
            <path id="path247" class="st67" d="M48.7,220.9c-.8.4-1.1,1.5-2.2,1.5.8-4.5,2.8-8.6,5.2-12.4,0-.6.2-1.4.8-1.5.7-.2,1,.5,1.3,1.1-2.6,3.3-2.8,7.7-5.1,11.3Z"/>
            <path id="path249" class="st54" d="M90.5,304.8c.2-.4.3-.7.5-1.1,3.7,4.3,8.3,7.5,13.5,9.8,1,.4,2.3.6,2.2,2.2,0,.5,0,.9-.5,1.2-3.6.1-5.9-2.6-8.7-4.1-1.8-1-3.4-2.3-5.2-3.4-1.5-1-2.9-2.4-1.8-4.6Z"/>
            <path id="path251" class="st14" d="M131.3,319.7c.3.3.6.7.8,1-1.3.9-1.9,2.5-3.5,3.1-.4-1.2,1.3-1.2.9-2.3-1.4-.1-2,1.4-3.3,1.6-.6.1-.7,1-.4,1.1,1.6.5,0,2.8,1.7,2.9,1.4,0,2.2.8,3.2,1.5-1.4.3-2.8-.3-4-.7-1.4-.5-3.4-1.5-3.1-3.1.3-1.7,1-3.8,3.6-3.9,1.3,0,2.7-.7,4.1-1.2Z"/>
            <path id="path253" class="st87" d="M223.9,201.7c.3.4.7.8,1.1,1.2,0,2.6,1.6,4.4,2.6,6.6.7,1.5,2.7,2.9.2,4.6-.3.2.1,1.2.1,1.9-.5-.2-1-.4-1.6-.2-.8-4.1-.8-8.5-3.1-12.3-.3-.7-.8-1.7.7-1.8Z"/>
            <path id="path255" class="st65" d="M57,266.5c0-.3.2-.5.3-.8,2.9-1,2-3.3,1.8-5.3-.2-1.7-.6-3.3-.3-5h0c3.3,1.8,2.6,5,2.5,7.8,0,2.9-1.3,3.6-4.3,3.3Z"/>
            <path id="path257" class="st73" d="M147.1,326c2.6-1.6,5.2-3.3,8.1-4.1.3,0,.5.1.6.4-.5,1.5-1.9,2.2-2.8,3.4-2.9,1.1-5.4,3.2-8.6,3.6-.3-2.2,2.3-1.8,2.7-3.3Z"/>
            <path id="path259" class="st87" d="M79.1,188.6c.3-.7.8-1.3,1.4-1.7,3.7-3.7,7.4-7.3,11.9-10.1-3.9,4.5-7.7,9.1-13.3,11.8Z"/>
            <path id="path261" class="st71" d="M53.8,209.5c-.9-.7-1.6-.6-2.1.4,1.2-5.7,4.4-8.8,9.7-9-3.7,1.9-7.7,3.5-7.6,8.6Z"/>
            <path id="path263" class="st77" d="M147.1,326c-.4,1.5-2.1,1.9-2.7,3.3-4.1,1.9-8.2,2.6-12.4.1.4-.4,1-.7,1.5-.5,5.2,2.1,9.5,0,13.6-2.9Z"/>
            <path id="path265" class="st39" d="M103.6,154.6c0-.3.2-.7.3-1,4-1.7,8.1-1.3,12.2-.8.5.3,1.2.3,1.3,1.1-4.6-.6-9.2-.5-13.8.7Z"/>
            <path id="path267" class="st66" d="M171.7,313.7c0,.4,0,.8.1,1.2-3,.9-5.6,3-9,2.1,2.6-2.1,6-2.2,8.9-3.3Z"/>
            <path id="path269" class="st30" d="M58.8,255.5c-2-2.2-2.2-5.4-.5-8.7-.3,3,1.5,5.7.5,8.7,0,0,0,0,0,0Z"/>
            <path id="path271" class="st65" d="M187.6,157.1c-.1.2-.2.4-.3.6-3-1.9-6.6-1.8-9.7-3.1,3.8-1,7,.3,10,2.5Z"/>
            <path id="path273" class="st15" d="M155.7,322c-.1-.1-.3-.1-.5-.2,1.7-2,4.1-3.1,6.5-3.9-1,1.9-2.8,2.9-4.4,4.1-.5.8-1,.9-1.6,0Z"/>
            <path id="path275" class="st85" d="M216.3,178.6c-.4,0-.8,0-1.3.1-1.7-2-4.4-2.2-6.5-3.5.1-.2.1-.4.2-.6,2.9.7,6,1,7.6,4Z"/>
            <path id="path277" class="st50" d="M211.4,283.9c-.5-.2-.9-.4-1.4-.7,1.1-1.4,1.7-3.1,3.1-4.2.6,0,1.1.1,1.7.1-.7,1.8-2.1,3.3-3.4,4.8Z"/>
            <path id="path279" class="st39" d="M96.2,175.4c.5-2.7,2.8-3.7,4.7-5,.6-.4.3.6.3.9-1.7,1.3-3.4,2.7-5,4.1Z"/>
            <path id="path281" class="st13" d="M156.3,312.5c.7-.6,1.3-1.3,2-1.9.3-.2.6-.4.9-.6.4,1,1.3.6,2,.8-1.2,1.9-2.9,2.2-4.9,1.7Z"/>
            <path id="path283" class="st18" d="M117.5,153.9c-.4-.4-.9-.7-1.3-1.1,2.2-.2,4.2.1,6.1,1.3-.4.4-.7.9-1.1,1.3-.9-1.3-2.2-1.8-3.7-1.5Z"/>
            <path id="path285" class="st49" d="M155.7,322c.6,0,1.1,0,1.7.1-.6,2.3-3,2.3-4.4,3.6.6-1.5,1.6-2.6,2.7-3.7Z"/>
            <path id="path287" class="st36" d="M106.2,316.6c.2-.3.4-.6.6-1,.9.8,1.1,1.9,1.1,3-.8.1-1.3.5-1.7,1.1-1.7-1.2-1.7-1.5,0-3.1Z"/>
            <path id="path289" class="st40" d="M176.5,300.5c.7-2.2.8-4.9,4-5.1-.8,2.1-.5,5.1-4,5.1Z"/>
            <path id="path291" class="st60" d="M106.2,316.6c0,1-.5,2.1,0,3.1.6,1.8-.4,2.6-1.9,3.1-4.5,1.6-8.2-.8-11.9-2.6-4.6-2.3-7.2-6.8-10.8-10.3-3.4-3.4-5.9-7.6-9.5-10.8-1.1-1.7-2-3.1-4.6-3.4-2.3-.2-3.2-3-3.8-5.1-.8-3.4-1.5-6.7,1.6-9.7.9-.8.8-3,2.7-2.4,2.8.9,6.6-.4,8.3,3.4,2.4,5.5,6.5,10,9.6,15,.8,1.3,1.6,2.4,2,3.9s.7,3.4,2.7,4c1.7,4.2,6,5.2,9.2,7.7,1.9,1.6,4.5,2.3,6.4,4.1Z"/>
          </g>
          <g id="g313">
            <path id="path295" class="st44" d="M162.6,220.4c3.6-.2,7.1.3,8.8,4.4,1.9,4.5,1.6,8.8-1.2,12.9-.5.8-1.4,1.3-2.1,2-6.2,5.6-9,4.7-10.7-3.4-.9-4-1.6-8.1-6.2-9.7-.9-.3-1.7-.9-1.7-2.1.1-1.4,1.1-2,2.3-2.3,3.6-.9,7-1.9,10.8-1.8Z"/>
            <path id="path297" class="st57" d="M113.4,263.2c8.8,1.2,17.5,2.3,26.3-.2,4.9-1.4,9.5-3.3,13.9-5.5,7.9-3.9,15.7-8,21.7-14.9,6.6-7.6,11.2-16.4-.2-26.7-.3-.3-.3-.9-.4-1.3,8.9,2.9,12.8,10.8,9.5,19.2-2.3,5.9-5.5,11.3-10.5,15.2-10.4,8.1-21.4,15.2-34.7,17.9-6.4,1.3-12.8,1.2-19.3.9-2.9-.1-5.6-1.2-7.9-3-.2-1.3.2-2,1.6-1.6Z"/>
            <path id="path299" class="st44" d="M134.1,230.2c-1.4,2.2-3.2,1.5-4.8,1.7-8.5,1.1-11.8,8.8-6.7,15.7,1.4,1.9,3.2,3.6,4.5,5.5s1.3,3.5-1.6,4.1c-7.2,1.5-15.9-5.3-16.2-12.6,0-1.8.5-3.3,1.5-4.7,3.4-4.8,8.5-7.7,13.1-10.9,2.7-1.7,6.8-.5,10.2,1.2Z"/>
            <path id="path301" class="st48" d="M101.4,241.7c.7-9.7,2.9-16.4,16.7-19.9,5.3-1.3,10.5-3.3,15.9-3.9,7.8-.8,14.4-4.8,21.5-7.5,5.1-2,10.1-2.6,15,.8-.9,1.9-2.1.9-2.9.6-3.9-1.4-7.6-.7-11,1.4-6.4,4-13.6,5.8-20.9,7-5.4.9-10.7,2.3-16,3.8-7.7,2.2-13.2,6.5-15.6,14.3-.4,1.3-1.3,2.5-2,3.8-.3-.1-.5-.2-.7-.4Z"/>
            <path id="path303" class="st44" d="M136.4,275.5c-1.1,2.4-3,2.1-3.9,3.1-3.9,4.4-7.5,2.3-11.2-.2-1-.7-2.3-1.3-1.7-2.7s1.4-1.5,2.2-1.5c4.9-.5,9.8-1.8,14.6,1.3Z"/>
            <path id="path305" class="st48" d="M113.4,263.2c-.5.5-1,1.1-1.6,1.6-10.6-4.1-14.6-12.9-10.5-23,.2.1.4.3.6.4.2.9.6,1.8.6,2.7,0,8.4,3.9,14.2,10.9,18.3Z"/>
            <path id="path307" class="st29" d="M128,241.4c3.4-1.5,7.4-.8,10.8-2.5,3.3-1.6,6.1-4.3,11-5-5.1,5.9-10.8,8.7-17.3,10.2-1.8.5-3.8.3-4.5-2.7Z"/>
            <path id="path309" class="st44" d="M146.4,251.2c-1.3-.1-2-.6-2.2-1.7-.3-2.3,1.8-4.3,4.5-4.4,1.4,0,3.3.4,2.9,2.2-.6,2.5-3.1,3.3-5.2,3.9Z"/>
            <path id="path311" class="st44" d="M143.3,229.1c.2.1.5.1.6.2.1.2,0,.5-.1.6-.5.5-.9.3-.9-.4,0,0,.3-.2.4-.4Z"/>
          </g>
          <g id="g547">
            <path id="path315" class="st44" d="M336.4,364.7c5.9-3.2,6-3.3,3-8.9-1.2-2.3-1.1-4,.6-5.8,3.1-3.1,6.3-5.9,11.2-5.5,4.1.3,7-1.7,10.2-4.2,5.5-4.5,11.6-8.4,17.8-12,6.1-3.5,9-9.8,13.6-14.6,1.2-1.3.1-3.2-.2-4.8.5-3.5-.1-7.1,1.5-10.5h-.1c4.1,0,6,4,9.6,5.2,2.7.9,5.1,2.3,8,.9,8.7-2.3,17.9-3.2,26.2-6.9,6.4-2.8,11.8-2.1,15.9,4,1.1.8,2.4,1.4,3.4,2.4,3.3,3.3,4.9,8,7.8,9.9-2.8-1.7-4.4-6.2-7.5-9.5-1.9-2-4.7-2.9-6.5-5.1-2.7-2.8-2.6-5.6-1.9-9.5,2.9-16.8,11-31.3,19.3-45.8,2.6-4.6,5.8-8.8,7.7-13.8.8-3.8,3.8-3.7,6.8-3.7,10.1,0,18.9,4.7,27.8,8.4,12.5,5.3,24.9,11,36.1,18.8,7.8,5.4,15.6,11,20.4,19.5.8,4.5-.8,7.5-4.5,10.3-12,9-23.2,18.8-32.7,30.6-3.4,4.3-9.4,6.5-13.3,10.8-4.3,2-6,6.9-10.1,9.1-2.8-.7-4.9-2.6-7.3-3.6.1.1.1,0,.2.1,3.5,2.3,8.1,3,9.2,7.9-2.3,19.3,7.7,32.8,21.1,44.6,3.5,2.6,7.7,3.9,11.6,5.7,2.7,1.2,5.2,1,8.2-.3,16.8-7.1,34.1-12.8,51.6-17.8,7.6-2.2,15.7.9,23.6.5,6.4-.1,10.3,3.2,11.6,9.3,1.9,9.2,5.1,18.2,6.6,27.5,0,11.8,1.2,23.6.8,35.4v4.6c.3,5.5-2.4,10.5-4.3,15-3.5,8.2-.9,15.8-1.2,23.6,0,2.2.7,4,1.8,5.8,1.4,2.3,2.2,4.8,1.2,7.5-6.8,16.2-11.5,33.3-20.4,48.6-1.5,4.2-3.1,8.3-4.9,12.4-1.5,2.7-3.6,4.9-4.9,7.7-1.1,2.6-3.6,3.7-6.5,3.1-12.6-11.6-25.1-23.3-39-33.3-2.7-1.9-5.7-3.5-8.3-5.6-5.7-4.9-13.2-6.7-19.4-10.8-5.3-3.1-2.9-6.5-.5-10,4.5-10.9,2.7-22.7,4.6-34,.6-3.5,1.3-7,2-10.5,1.1-5.7,5.6-8,11-8.5,3.6-.3,7.2-.4,10.7-1.2.7-.1,1.5-.2,2.2-.1,2,.6,4,1.4,6.2,1.2,9.7.7,19.3,1.7,28.5,4.7-10.3-3.3-21-4.5-31.8-5-4.6-2-9.4-1.2-14.2-1.1s-7-1.4-9.1-6.2c-5.1-11.5-6.8-23.6-8.5-35.8-.8-3,0-6.2-.7-9.3-.2-.5-.3-1-.3-1.3,1.2,4.2.2,8.5,1.3,12.5,1.7,11,2.5,22.2,7.9,32.4,1.7,3.3,1.8,6.9,0,10.2-6.7,12-5.7,25.4-6.9,38.3-.4,3.8-1.8,7.3-1.8,11.1-.3,3.9-6.7,6.3-2.7,11.2,4.3,3.6,9.5,5.5,14.6,7.6,2.8,1.2,4.9,3.3,7.4,4.8,13.8,9.1,26.4,19.7,38.4,30.9,2.6,2.4,5.4,4.8,6.7,8.3-.2,3-1.2,5.8-1.7,8.7-5.5,10.9-14,19.6-22.1,28.5-4.8,5.3-10.1,10.2-15,15.4-8.7,9.2-20.4,13.1-30.9,19.2-2.8,1.6-4.5-.2-6.3-1.7-2.3-3.3-2.9-8-7.4-9.7-.6-.4-1.1-.8-1.6-1.3-3.6-7.5-7.5-14.7-11.8-21.8-6.9-11.2-12-23.3-18.3-34.8-2.9-5.4.2-11.2,1.9-16.6,6.2-8.1,13.9-14.8,19.6-21.4-5.5,4.7-10.4,12.2-17.3,17.7-2.1,1.7-2.9,4.7-3.4,7.5q-3.7,12.3-16.5,11.9c-3.6,0-7.1-.3-10.6-.8-11.9,0-20.7,5.9-28,14.7-1.2,1.4-1.4,3.5-3.1,4.7-.7.3-1.4.4-2.2.3-2-1-3.5-2.7-5.1-4.1-1.3-2.3-2.5-4.6-3.8-6.9-4.3-8.2-10.1-11.4-19.1-10-3.8.6-7.6.5-11.4.6-6.9,0-13.3,2.3-19.7,4.6-2.4.4-4.5,2.8-7.2,1.2-1.9-6.1-5.1-11.3-9.4-15.9-3.7-6.5-9.6-10.7-16.2-13.4-7.3-2.9-14-6.8-19.6-9.6,8,6.5,20.5,7.8,29.5,15.9,2.7,2.4,5.2,4.8,6.9,8.1,6.9,7,8.9,14.1,5.3,24.4-3.8,10.9-8.8,21.6-10.2,33.3-2.8,10.1-7.2,19.4-12.6,28.4-2,3.4-4.2,6.2-8,7.5-6.3-.6-12.3-2.9-18.4-4.5-14.3-3-26.1-11.4-38.8-17.9-7.4-5-14.8-10-22.3-15-5.2-3.4-4.4-6.9,1.8-12.7-5.1,1.9-10.4,3.4-15.1-1.6-3.2-4-6.8-7.4-11.6-9.4-3.7-4.5-7-9.2-9.4-14.5-4.7-15.4-10.2-30.7-10.1-47.2,0-6.3,2.2-10.2,8.5-12.1,5.7-1.8,11.2-4,16.6-6.5,7.2-3.1,14.8-4.8,22.6-5.4-7.8.7-15.3,2.3-22.5,5.4-6.9,3.2-14.3,5.2-21.1,8.5-3.4,1.6-4.6,0-4.7-2.8-.1-3.1-1.1-6.1-.8-9.2-1.4-7.1.8-14,.8-21.1s-.3-9.1-2-13.5c-.3-1.6-.2-3.2-.2-4.8,1-6.6,3.5-12.9,3.9-19.6.3-4.9,3.2-6.1,7.8-5.7,5.3.4,9.6,5.4,15.4,3.1,2.3-.1,4.6,0,6.9-.3,2.7,0,5,1.1,7.4,2,4.3,5,10.8,4.3,16.3,6.1,9.5,3,18.2,7.5,26.9,12.2,1.5.8,2.6,1.8,3.2,3.6,2.7,9,4.4,18.1,1.7,27.4-1,3.5-2,8-7.3,6,1.8,1.3,4,0,6.2.1,8,3.6,8.6,11.9,11.7,18.5,1.9,3.9,2.6,7.6-.3,11.1.1-.2,0,0,.1,0,2.2-3.1,2.4-6,.9-9.4-3.3-7.6-4.9-16-12.4-21,2.9-9.6,3.3-19.2.6-28.9-1-3.5-2-6.8-6.1-8.1-4.5-1.4-3-4-.3-5.4,8.4-4.1,10.9-11.5,12-19.9,1.4-10.8,4.8-21.6-.6-32.4-1.7-3.4.2-5.7,3.9-5.8,4.3-.1,7.2-2.5,9.7-5.5,6.6-8.1,13.9-15.6,18.3-25.5,2.1-3.9,3.9-9.2,9.7-10.2Z"/>
            <path id="path317" class="st44" d="M408.4,304.1c-.3-.6-.5-1.4-1.1-1.9-6.1-4.9-9.3-12.3-14.9-17.7-3.9-3.8-7.8-7.4-9.2-13.2-1.2-4.8-6.5-6.7-10.4-9.3-2.8-1.9-5.6-3.6-7.3-6.6-2.4-4.3-1.8-6.8,2.4-9.5,4.4-2.8,8.8-5.4,14.4-5.6,4.4-.1,7.6-2.7,8.8-7.2.1-.5.1-1.2.5-1.3,9-4,18.3-6.3,28.2-4,5,3.9,10.3,5.9,16.5,2.6,1.1-.6,2.8-.4,4.2-.2,4.8.8,9.5.6,14.3-.5,1.2-.3,2.4-.3,3.6-.3,5,.2,6.5,2.4,5,6.9-.5,1.6-1.3,3.1-2.4,4.4-3.7,4.6-4.4,9.4-2,14.8,1.7,2.3.2,4.1-.5,6.2-3.3,9.6-7.2,19-9.3,28.9-.9,4.4-3.9,6.2-7.6,7.3-9.5,2.8-19,5.7-28.8,7.5-1.7.2-3.3.2-4.4-1.3Z"/>
            <path id="path319" class="st78" d="M288.9,508.6c-4.5,1.9-9.3-.3-13.9,1-.6.2-1.4-.6-1.2-1.4.1-.6.5-1.5,1.1-1.7,2.5-1.2,5.2-1,7.7-.5,3.6.6,5.5-1.1,6.5-4.2,2.8-9.3,1.7-18.4-1.6-27.4-.8-2.3-2.9-3.1-4.9-3.9-8.1-2.9-15.7-6.9-24.3-8.4-6.1-1.1-12.1-2.8-17.3-6.6.2-.7.6-1.4,1.1-1.9,3-2.3,5.9-.7,8.8.3,8.8,3.2,18.1,4.8,27.4,5.2,7.8.3,10.9-2.1,12.7-9.7,2.1-8.6,3.2-17.4,2.8-26.3-.5-10.7-6.6-17.5-17-20.3-11-3-22-6.4-30.4-14.9-.3-2.7-.5-5.3.9-7.8,3.6-3.1,6.8-.7,9.8,1,11,6.3,22.5,11.5,33.9,16.8,11.7,5.5,14.2,4.7,22.2-5.7,6.6-8.6,10-19,15.7-28.1,1.5-2.4,2.4-5.4,6.2-4.7,1.1.5,1.8,1.3,1.2,2.6-.1.9-.1,1.8-.2,2.7-5,7-8.1,15.1-12.7,22.3-4,6.4-7.8,13.1-13.8,18.1-3.7,3.1-7.1,5.7-13.1,2.9,6.8,16.7,2.1,31.9-.5,47.3-.7,4.4-2.7,7.5-7.2,8.9-1.8.6-3.4,1.6-5.3,2.6,10.3,8,9.4,19.1,8.9,29.9-.2,3.5-1.5,7-2.3,10.5.2.8-.7.9-1.2,1.4Z"/>
            <path id="path321" class="st23" d="M641.4,407.8c-3.7-5.5-3.4-12.2-5.4-18.3-1-3.1-1.7-6.4-2.8-9.6-1.5-4.2-4.1-6.9-8.8-6.9-1.5-1.2-4.6.6-5-2.7,7-6.2,4.9-13.5,1.2-20-10.9-19.4-22.4-38.4-36.4-55.8-1.2-1.5-2.6-2.8-4.2-3.9-2.1-1.8-2.9-4.4-4-6.8-1.5-3.1-5-4.8-5.4-8.6.2-1.1.8-2,1.7-2.6,8.6,6.1,14.3,15.3,23,21.4,1.8,3.4,4.1,6.4,7.3,8.6,4.4,13.1,14.2,23.1,20.4,35.2,8.2,16.1,14.1,32.9,17.8,50.5.7,3.5,1.5,7,2.3,10.5h0c1.3,2.4,1.3,4.9,1,7.5-.5,1.3-1,2.6-2.7,1.5Z"/>
            <path id="path323" class="st6" d="M527.8,641c3.4,2.3,6.4,1.2,9.8-.3,20.7-8.9,35.3-24.8,48.5-42.2,4.4-5.7,9.6-10.6,13.7-16.5,1.7-1.2.6-7.7,5.5-3-4,4-5.5,9.4-8.6,13.9-4.8,7-11.4,12.2-16.8,18.6-6.7,7.8-14.4,14.6-22.4,21.1-1.9,1.5-3.8,2.8-5.9,3.9-13.8,7-27.6,14.1-41.5,21.1-.8.4-1.7.9-2.7,1-12.8,2-24.6,8.1-37.7,8.7-1.2,0-2.3.5-3.5.8-2.4-3.4.1-5,2.3-6.7,13.7-2,26.8-6.3,39.8-10.8,5.9-2.1,11.5-4.7,14.9-10.4,2-1.6,3.5-1.4,4.6.8Z"/>
            <path id="path325" class="st71" d="M230,515.9c-5.2,3.4-11.3,5.1-17,7.4-5.4,2.1-7.3,5.8-7.7,10.8-.5,6.7.2,13.3,2.4,19.7,3.1,9.3,6.2,18.5,7.7,28.2-1.6.8-2.1-.8-3-1.5-3.5-5-6.4-10-4.9-16.5.4-1.9-.7-4.2-1.3-6.2-3-8.9-4.3-18.1-3.7-27.5.2-3.8.1-7.7-.5-11.4-3.9-24.5-3.3-49,.3-73.5.8-5.4-.8-11,1.5-16.3,4,2.7,2.7,7.5,4.5,11.1-2.6,10.7-4.3,21.6-5.7,32.6,0,1.4.1,2.8.1,4.2,2.4,8.2-.2,16.5.8,24.8.5,3.7-.6,7.5.6,11.2.1,3.3-.1,6.6,1.2,9.9,8-3,16-4.8,23.4-8.4.3.5,1.3.5,1.3,1.4Z"/>
            <path id="path327" class="st85" d="M620,548.9c2.1-9.7,8.4-17.8,10.9-27.3,1.9-7.1,5.4-13.8,6.4-21.2-.5-8,2.7-16.2-1-24.1-.7-1.4-.2-2.8.6-4,4.8-7.6,3.5-16.3,4.7-24.6,0-1.3.2-2.6.3-3.8,1-1.5,2.4-2.2,4.2-2.1,1.6,11.4,1.4,22.8-.2,34.2-.4,3.1-.9,6-.6,9.2.8,8,0,15.6-5.1,22.4-4.6,6-4.4,14.1-7.5,20.8-1.7,3.7-3.1,7.3-5.8,10.5-2.4,2.9-3.7,6.6-5.5,10-.5.7-.9.7-1.4,0Z"/>
            <path id="path329" class="st54" d="M205.3,440.9c-1.9-3.7-1-7.9-1.6-11.8-.1-12.1,3.7-23.3,7.4-34.7,4.5-13.9,11.8-26.5,17.4-39.8.5-.5,1.1-.7,1.8-.5,1.4.7,2.6,1.9,2.4,3.3-1.2,8.6,5.5,12.1,10.8,16.4,2.4,2,5.4,3.3,5,7.2.1,1.7.2,3.5.3,5.2-2.9,2.6-5.5.8-7.6-1-2.4-2-4.9-3.9-7.4-5.6-5.8-4-8.1-3.5-10.5,3.3-5.7,16.2-10.6,32.7-11.8,50-1.4,2-2.7,4.1-3.5,6.4-.7.8-1.5,1.4-2.7,1.6Z"/>
            <path id="path331" class="st73" d="M412.7,304.6c8.2-2.7,16.5-4.6,24.8-6.9,6.3-1.8,8.9-5.3,10.5-11,2.2-8,5-16,7.6-23.9.8-2.5,2.2-4.8,3.2-7.2,4.3-4.7,6.9-10.5,10-16,1.7-3,3-6.3,5.4-9,1-.3,2.1-.9,3.1.2-.7,5.2-4.5,8.9-7,13.2-7.3,12.9-13.9,26-17.6,40.4-1.2,4.6-4.1,9.5-.1,14.3,1.6,1.8,3.6,3.6.1,5.5-6.5-6.5-6.8-7.1-16.3-3.4-8.3,3.3-17,4.2-25.5,6.4-.6-1.7.6-2.2,1.8-2.6Z"/>
            <path id="path333" class="st38" d="M477.4,230.8c-1,.3-2.1.5-3.1-.2v-3.8c-.8-1.1-.6-2.1.4-3,7-.4,13.7,1.1,20.1,3.3,17.1,5.8,33.5,13.4,49,22.8,5.1,3.1,9.7,6.7,14.4,10.4,5,4,9.6,8.1,14.2,12.5v3.4c-2.3,1.8-4,.3-5.8-1-.5-.4-.9-.9-1.3-1.3-5.1-8.3-12.6-14.3-20.4-19.6-11.6-7.9-24.5-13.6-37.5-18.9-5.9-2.4-11.8-5.1-18-6.7-4.2-1.1-8.5-1.6-12,2.1Z"/>
            <path id="path335" class="st72" d="M428.5,592.1c.4,0,.8,0,1.2-.2,1.5-1.1,2-3.1,3.4-4.4,3-2.6,4.9-2.1,6,1.7-8.6,12.5-9.1,27.3-11.7,41.4-1.5,8.2-3.9,16.2-4.3,24.6-.3,5.9,1.7,9.2,8,9,2.4.2,3.7,2.1,5.4,3.5.5.5.9,1.1,1.1,1.7.2,2.5-2,2.2-3.4,2.8-1.9.2-3.7.4-5.6.6-5.7-.5-10.9-1.8-14.3-7-.4-.6-.6-1.2-.8-1.8-.1-.6-.2-1.3-.3-2-.2-.6-.3-1.3-.5-1.9-.6-1.9-1.1-3.8-1.5-5.8-.1-1.4-.2-2.9.4-4.2,7.5-16.8,8.4-35,10.9-52.8.8-3.2,2.8-4.8,6-5.2Z"/>
            <path id="path337" class="st28" d="M237.1,603.5c2,3.3,4.9,3.2,8.2,2.2,4.9-1.4,9.1-4.1,13.8-8,0,5-2.7,7.2-5.2,9.4-8.2,7.2-8.4,8.3.8,14.6,5.3,3.7,10.3,7.8,15.6,11.5,1,.7,1,1.3-.1,1.9-.9-.3-2-.3-2.7-.9-4.5-4.3-9.9-7.2-15.5-9.8-4.2-2-7.4-4.9-9.6-9.1-1.3-2.5-2.8-5-5.6-6.3-1.3-.6-2.5-1.3-3.1-2.7-.4-2.7.1-4.4,3.4-2.8Z"/>
            <path id="path339" class="st26" d="M419.7,227.9c-9.7,1.1-19.4,2-28.7,5.3-6.2,1.7-12.6,2.6-18.7,6.4-.4-3,1.4-3.5,2.7-4.2,8.6-4.5,17.7-7.4,27.2-8.8,11.6-1.7,23-4.6,34.9-4.2.7,1.5-.7,1.9-1.4,2.6-2.7,1.2-5.5,1.1-8.4,1.4-2.6.3-5.3,0-7.6,1.5Z"/>
            <path id="path341" class="st14" d="M395.5,673.9c-5,.7-10,0-14.9-1-11.8-2.6-24-3.8-35.7-7-2.5-.7-5.1-1.4-7.2-3.1,1.5-6.1,6.4-4.2,10.4-4.3,11.9,6.2,25.2,5.8,38,7.7,3.7.5,7.6.5,10,4.2.5,1.3.3,2.5-.6,3.5Z"/>
            <path id="path343" class="st56" d="M237,334.4c11.6-14.8,22.5-30.2,35.8-43.7,4.9-4.9,10.2-9.3,16.2-12.7.6.4,1,1,1.3,1.7.4,2.4-.8,4.1-2.6,5.5-15.3,11.8-26.3,27.3-37.6,42.7-2.9,4-5.1,9.6-11.7,9.1-1.2-.6-1.9-1.3-1.4-2.6Z"/>
            <path id="path345" class="st36" d="M394,298.5c0,3.6.7,7.2-1.5,10.5-.1-.2-.3-.4-.3-.6.3-10.8-5.1-18.8-12.2-26.3-6-6.4-11.3-13.4-17.9-19.3.7-.8,1.5-.9,2.4-.2,7.3,3.8,13.9,8.4,17.1,16.5,1,2.5,3.1,4.2,4.9,6.1,3.5,3.7,6.7,7.8,7.5,13.3Z"/>
            <path id="path347" class="st31" d="M342.2,335.8c4.9,2.8,9.7,1.9,14.4-.3,5.8-2.6,10.6-6.7,14.7-11.3,5.3-5.8,11.5-9.9,18.7-12.9,1.2,1.8-.1,2.9-1.3,3.4-8.8,3.8-15,11-21.8,17.4-3.6,3.3-7.8,5.6-12.3,7.3-5.5,2.1-10.8,2.2-15.4-2.1,0-2.4,1.3-2.5,3-1.5Z"/>
            <path id="path349" class="st11" d="M300.2,269.5c4-3.4,7.9-6.9,12-10.1,7.1-5.4,15.2-8.3,24.4-8.4-11.4,6.2-23.3,11.5-33.3,20-1.9,1.2-3,.9-3.1-1.5Z"/>
            <path id="path351" class="st55" d="M342.2,335.8l-3,1.5c-3.1-.4-2.9,1.8-2.6,3.7.8,5.8-.9,11.7.6,17.6.2,1-.4,2.3-.6,3.4-.6-.6-1.2-1.1-1.8-1.7-2.2-1.1-2.9-3-3.1-5.2-1.2-13.5-3.4-26.8-9-39.2-.7-1.6-.7-3.2.5-4.7.8-.4,1.5-.4,2.1.2,3.3,3.5,5.4,7.9,7.4,12.1,2.4,4.8,5.5,8.8,9.5,12.3Z"/>
            <path id="path353" class="st52" d="M646.2,441.7c-.2,1.6-.4,3.2-.6,4.9-2-.1-1.9-2.5-3.6-2.8-1-12-.7-24-.7-36,.9-.5,1.9-.9,2.8-1.4.8,11.8,1.5,23.6,2.1,35.3Z"/>
            <path id="path355" class="st37" d="M300.2,269.5l3,1.5c-.8,3.1-.6,5.8,1.7,8.5,2.1,2.5,3.5,5.5,4.4,8.7l-.8.8c-6.3-3.2-14.7-2.2-19.4-8.9-.1-.7-.1-1.4-.2-2,2.3-2.3,4.7-4.5,6.9-6.9,1.3-1.6,2.7-1.7,4.4-1.7Z"/>
            <path id="path357" class="st54" d="M270.2,635.2c0-.6,0-1.3.1-1.9,7.1,2.4,13.2,6.6,19.7,10.1,6.2,3.3,12.4,5.8,19.1,7.6.8.9.8,1.8,0,2.7-14.7-2.6-26.6-10.9-38.9-18.5Z"/>
            <path id="path359" class="st53" d="M309.1,653.7v-2.7c6.2,1.5,12.5,3,18.7,4.5,3.2-.6,6.4,0,9.5-.7,4,1.9,10.8,0,10.5,7.7-3.3,0-6.8-3.1-10,.3-9.6-3-19.2-6-28.7-9.1Z"/>
            <path id="path361" class="st82" d="M605.3,578.9c-3.1-1.3-3.8,1.8-5.5,3,0-3.4.2-6.8.3-10.3.4-3.2,2.1-4,4.9-2.7,2.1-.3,4-.5,5.3-2.7s3.1-4,4.8-6c.6-1.2,1.3-1.2,1.9,0-2.3,5.3-4.8,10.6-8.1,15.4-1,1.5-1.9,2.8-3.6,3.3Z"/>
            <path id="path363" class="st9" d="M415.4,664.1c3.7,4.1,9,5.6,13.3,8.7-9.1,1.3-18.3,1.3-27.5,1.2-.8-3.4,1.6-4.9,3.9-6.5,3.1-1.9,6.2-4.2,10.3-3.4Z"/>
            <path id="path365" class="st81" d="M470.5,664.2c-1.5,1.1-3.7,1.5-4.2,3.8-5.6,2.3-11.4,3.5-17.4,3.2-3.9-.7-8,1.2-11.6-1.5h0c1.4-7.6,8.2-5.9,13.1-7.6,4.3-.3,8.6-.2,12.9-.8,2.8-.3,5.7-.5,7.2,2.9Z"/>
            <path id="path367" class="st62" d="M364.5,262.4c-.8.1-1.6.1-2.4.2-4.8-1.3-8.5-4.1-11-8.4-2.6-4.6-.3-12.2,4.6-14.4,1.3-.6,2.8-1,3.7.7.7,1.4-.4,2.1-1.3,2.9-5.6,5-5.2,11.6.9,15.8,1.8,1.1,3.7,2.1,5.5,3.2Z"/>
            <path id="path369" class="st63" d="M235.7,606.9c.4.7.8,1.5,1.2,2.2-4.2.7-6.7-2.2-8.9-4.9-5.9-7.4-11.8-14.8-15.6-23.6l3,1.5c2.7,4.4,5.3,9,8.9,12.8,4.7,3.1,8.1,7.5,11.4,12Z"/>
            <path id="path371" class="st7" d="M474.7,223.9c-.1,1-.3,2-.4,3-6.4-1.5-13-1.5-20.1-2,7.1-3.2,13.8-3.2,20.5-1Z"/>
            <path id="path373" class="st84" d="M237,334.4c.5.5,1,.9,1.5,1.4,2.6,6.2-4.2,9.8-4.3,15.4,0,2.2-2,3.6-4.4,3.5-.4,0-.9-.1-1.3-.1,0-.2.1-.5.1-.7-.9-11,1.6-10.2,6.5-17.3.5-.8,1.2-1.5,1.9-2.2Z"/>
            <path id="path375" class="st36" d="M412.7,304.6c-.5.8-1,1.7-1.5,2.5-6.9-.7-12.1-4.6-17.3-8.7,1-1.4,2-1.5,3.5-.3,3.3,2.6,6.6,5.2,10.9,5.9,1.5.2,3,.4,4.4.6Z"/>
            <path id="path377" class="st58" d="M435.7,225.1c.5-.9,1-1.8,1.4-2.6,3.1-.3,6.2-.7,9.2-.8.9-.1,1.9.6,1.9,1.7.1,1.2-.9,1.5-1.9,1.6-3.5.3-7,.6-10.6.1Z"/>
            <path id="path379" class="st82" d="M602.7,302.8c-5.4-.9-6.6-2.3-7.3-8.6,3.5,1.9,6.2,4.6,7.3,8.6Z"/>
            <path id="path381" class="st9" d="M437.2,669.7c3.9.2,8-.7,11.6,1.5-4.7,2-9.6,1.4-14.5,1,1-.8,1.9-1.6,2.9-2.5Z"/>
            <path id="path383" class="st34" d="M309.3,288.2c4.3,4.2,7.6,9,10,14.4-.3.2-.6.5-.9.7-7.2-1.2-11.8-8.3-9.5-14.8l.4-.3Z"/>
            <path id="path385" class="st52" d="M406.8,670.8c-.5,3.5-4.1,1.4-5.6,3.2-1.9,0-3.8,0-5.6,0v-2.6c3.5-4.6,7.3-3.8,11.2-.5Z"/>
            <path id="path387" class="st15" d="M616.9,560.3h-1.9c1.8-3.8,2.6-8,5-11.4h1.4c-1.1,3.9-2.6,7.7-4.5,11.4Z"/>
            <path id="path389" class="st10" d="M319.3,302.6c1.5,1,2.7,2.3,3.1,4.2-.3.2-.6.4-.9.6-2.7-.6-4-1.9-2.5-4.7h.3Z"/>
            <path id="path391" class="st10" d="M325.4,311.3h-1.7c-2.2-.6-3-1.9-1.9-4.1.2-.2.4-.3.6-.5,1.4,1.4,2.2,3,3,4.6Z"/>
            <path id="path393" class="st44" d="M347.9,353.1c1.2-1.8,2.6-3.8,4.8-3.8,5.6-.2,9.7-3.3,13.9-6.3,1.6-1.6,4.1.2,5.8-1.4,3.9-4.9,7.9-9.5,14.2-11.6,3.2-1.1,4.1-4.4,5.5-7.2,3.6-7.1,8.8-9.8,15-7.9,1.6.5,3,1.5,4.4,2.3,1.5.9,3.5,1.9,4.7.8,4.8-3.9,11.4-3.3,16.2-7.2,4.6-3.6,10.6-3.2,15.2.4,2.6,2.1,5.3,4.2,7.6,6.6,3.9,4.3,8,7.2,14,8.9,8.5,2.4,16,7.9,20.6,15.8,4,6.8,9.4,13.1,9.6,22,.2,6,5.6,9.8,9.6,13.8,3.9,3.8,8.1,7.8,11.1,12,3.7,5.1,7.6,11.1,7.6,18.2s0,7.7,0,11.5c0,3.9.3,7.7,2.5,11,1.9,2.9,1.9,5.7.2,8.8-3,5.5-3,11,1.1,16.1,1.6,2,2,4.3,2,6.8,0,8.4.7,16.9-.2,25.1-.9,8.3-5.9,15.7-7.5,24.1-.6,3.3-4.7,5.2-8.2,6.4-4.8,1.7-9.1,4.3-12.5,8.2-1.3,1.5-2.8,2.6-4.7,3.3-.4.2-.9.4-1.3.5-5.3,1.2-4.3,8.1-8.8,9.8-4.4,1.8-8.4,3.6-9,9.1-.2,2.1-1.9,3.3-4,3.7-3.6.6-6.1,2.5-7.8,5.7-1.8,3.3-4.8,4.5-8.4,4.5s-4.3.3-6.5,0c-5.9-.6-10.8,1.2-14.7,5.8-1.6,1.6-4.1-.2-5.8,1.4-6.6,4-6.7,4.1-11.5-1.6-2.6-3.1-5.5-5.2-9.6-5.5-2.5-.2-4.7-.8-6.2-2.9-1.9-1.1-3.8-1.1-5.8,0-4.9,2.8-10.2,3.5-15.9,3-4.8-.4-9.6,0-14.4,0-1.9,1.1-3.8,1.1-5.8,0-3.4-3.6-6.5-7.2-8.7-12-2-4.3-5.7-8.5-10.8-9.9-4.2-1.2-7.2-3.5-9.9-6.7-2.4-2.8-5.3-4.4-9.4-4.2-10.2.6-14.4-2.1-18.1-11.5-1.6-4-2.4-8.3-5.1-11.8-1.1-1.4-1.2-3.2-.8-4.8,2.1-8.5-.3-16.7-1.3-25-.9-7.2-.6-13.8,3.4-20,1.9-2.9,2.8-6.5,2.4-9.6-.7-6,.7-11.9-.2-17.8-.6-3.9.5-7.7,1.8-11.3,1.3-3.5,3.7-6.1,7.7-6.8,7.2-1.3,10.9-5.4,12.3-12.9,1.8-9.4,6.5-17.8,12-25.7,2.5-3.5,4.5-7.4,5.9-11.5,2.2-2.6,0-5.9,1.8-8.6Z"/>
            <path id="path395" class="st44" d="M631.5,422.7c.4,7.2-.6,15.5,2.1,23.9,1.7,5.2-2.2,10.6-2.9,16-.2,1.2-1.8,1.6-3,.8-3.9-2.6-8.8-3-12.4-6.7-4.1-4.2-10.7-3.8-16.2-4.7-3.5-.5-6.4-1.4-9.2-3.3-3.9-2.8-8-4.4-12.6-1.6-.8.5-1.8.7-2.7.8-14,.8-17.4.8-16.5-12.8.3-4.1-1.7-7.6-4.2-10.4-4.5-5-5-11.2-5.7-17.4-.4-3.5,1-5.5,4.6-7,5.5-2.2,10.7-5.1,15.7-8.3,3-1.9,5.9-2.9,9.4-3,1.9-.1,3.9-.3,5.6-1,9.4-3.9,19.4-4.6,29.2-6.3,8.8-1.6,11.4.7,13.1,9.7.2,1.2.2,2.6.9,3.4,6.4,7.6,4.6,16.7,4.8,25.4,0,.5,0,1,0,2.5Z"/>
            <path id="path397" class="st44" d="M513.5,550.3c4.7-4,9.5-8,14.2-12.1,4.8-4.2,5.7-4.4,11.3-1.4,1.9,1.1,3.9,1.8,6.1,1.9,1.6,1.6,4.1-.2,5.8,1.4,1.1,1.8,2.5,3.2,4.3,4.3,1.8,2.7,0,4.9-1.5,7.3,1.8,0,2.8-1.8,4.4-1.5,5.8.2,10.9,1.6,13.8,7.3,1,2,2.8,3.2,4.9,4,3.5,1.3,6.2,3.8,8.1,6.9,2,3.3,7,5.4,3.2,11-2.4,3.5-3.3,7.8-8.4,8.8-3.4.6-5.2,3.4-5.6,6.7-.5,4.3-2.7,7.6-5.4,10.7-3.6,4.1-7.4,8.1-11.2,12.1-2.6,2.8-6,3.9-9.7,4.3-2.7.3-5.3.6-7,3.1-4-.4-.9-4.4-2.9-5.8-3.6-4.8-7.5-1.8-11.1,0-1.5-2.6.7-3.4,1.3-4.8,1.8-4.1.9-6.5-3.5-7.4-2.7-.5-3.9-1.9-5.4-3.9-5.4-6.7-7.4-15.5-13.9-21.4-1.3-1.2-1.6-2.9-1.9-4.6-.2-1.6-.5-3.4-1.1-4.9-3.1-6.9-2.7-8.4,4.3-12,2.2-1.1,4.1-2.4,5.4-4.5,1.6-1.5,0-3.9,1.5-5.6Z"/>
            <path id="path399" class="st44" d="M343.6,594.9c-.3.9-.3,2-.9,2.7-3.9,5.2-5.6,11-5,17.4.2,2.2-.7,4.3-2.3,5.9-2.7,2.8-3.6,6.2-3.3,9.9.3,4.9-1.3,7.9-6.6,9.3-4.3,1.1-7.9,4.5-12.8,3.7-1.6-.3-3.8,0-4.8-.9-4.2-3.9-9.6-5.6-14.5-7.6-7.3-2.9-12.8-8.9-20.5-11-3.9-1.1-6.7-4.5-9.5-7.4-1.3-1.3-1.6-3.1-.6-4.6,2.6-4,3.2-9.1,7-12.4.9-.8,1.8-1.8,2-2.9,1.9-9.4,9.3-14.9,15.5-21,5.9-5.6,11.7-11.1,16.5-17.7,1.5-2,2.8-3.8,2.8-6.4-.1-3,1.2-3.9,4-2.9,4.2,1.5,9,1.6,11.7,6.2,1.2,2.1,3.9,2.8,6.3,3.2,5.7.9,9.2,4.9,12.7,8.9,1.9,2.1.9,4-2,4.4-2.2.3-4.2-.7-6.3-1.3-5.8-1.8-7.6-1.1-11,4.5-1.1,1.9-1.1,3.8,0,5.8,1.3,1.8,3,3.6,5.1,3.1,6.4-1.5,10.6,2.1,15,5.5,1.7,1.5-.1,4,1.5,5.6Z"/>
            <path id="path401" class="st44" d="M631.3,490.7c.4,5.1.4,10.1-3.4,14.2-1.3,1.4-1.9,3.4-2,5.3,0,3.7-1.1,7-3.9,9.7-1.4,1.4-1.9,3.3-2,5.3,0,5.1-3.5,8.8-5,13.4-.7,2-2.5,2.8-4.4,3.3-4.6,1.2-6.8,3.8-6.2,8.9.5,4.1-.6,4.6-4.4,3.4-5.3-1.8-5.7-2.8-3.1-8,.5-1.1,1-2.2,1.1-3.3.3-3.6-2.2-5.3-5.5-4.1-7.8,3-7.6,2.8-13-3.2-4.9-5.4-10.5-10.1-17.6-13-5.8-2.4-11-5.9-12.6-12.8-.6-2.7-.4-5,2.3-6.9,6.7-4.6,8.3-8.3,5.1-15.5-2.4-5.5-.2-9.7,1.6-14.3.8-2,2.4-3.2,4.4-3.1,8.1.3,16.1-1.2,24.3-.8,6.9.4,12.3,3.1,17.3,7.4,4.7,4,6.6,3.9,11.4.6,7.8-5.4,13.4-3.2,15.2,6.3.8,2.3.4,4.8.4,7.2Z"/>
            <path id="path403" class="st44" d="M477.5,310c-2.2-.2-4.2-.8-5.8-2.4-1.9-1.9-2.5-3.6-1-6.3,3.7-6.7,3.1-8.1-3.6-11.4-3.7-1.8-5.5-5.1-3.3-9.5,4.4-9.3,5.5-19.8,11.1-28.5,4.5-6.9,9.2-13.8,19.2-12.3,1.2.2,2.6,0,3.5.7,8.2,6.3,19.1,7.5,26.9,14.4,1.2,1,2.9,1.6,4.5,2,3.2.7,5.7,2.4,8,4.6,3.4,3.3,7,6.1,11.6,8.1,6.4,2.7,6.6,7.8,0,10.4-5.9,2.4-9.5,8.1-15.9,9.2-.7.1-1.7.6-1.8,1.1-1.4,8.6-11.8,9.9-14.4,17.6-.4,1.2-1.8,2.3-3,3-3.5,1.8-6.2,4.3-8,7.9-1.3,2.4-3.1,2.2-4.2-.2-1.2-2.6-2.4-5.2-5.1-6.7-2.1-1.8-5.1.3-7.2-1.4h-1.4c-3.5.8-6.9.8-10.2-.3Z"/>
            <path id="path405" class="st44" d="M215.6,545c-.2-1.9-.5-4-.7-6.2-.4-5.6,3.6-8.5,8.7-6.3.7.3,1.2.8,1.8,1.1,7.2,4.3,14.7,1.4,17.3-6.6,2.4-7.7,9.9-10.1,16.1-5.2,1.5,1.2,2.9,2.5,4.7,3.2,5.6,2,9.6.4,12.4-4.8,2.3-4.3,2.7-4.5,7.2-2.6,1.6.6,3.1,1.3,4.6,2s3.3,1.6,3.2,3.5c-.2,2.5-2.5,1.4-4,1.7-5.6,1.2-8.7,6.6-5.2,11.4,5.3,7.5,1.9,13-3.1,17.5-7.8,7.1-11.4,17.2-18.8,24.3-.8.8-1.2,2.1-1.5,3.2-1.1,3.9-3.3,6.2-7.5,6.6-2.4.3-4.5,1.6-6.4,3.2-2.7,2.2-5.2,2-7.7-.4-1.8-1.7-3.9-2.8-6.1-3.8-1.6-.7-2.8-1.8-3.6-3.4-3.1-6.4-6.8-12.6-7-20-.1-3.6-1.1-7.1-3.3-10.1-1.8-2.2-1.8-5.1-1.1-8.3Z"/>
            <path id="path407" class="st71" d="M567,459.9c-3.1,1.6-6.5,1.1-9.9,1.3-8.3.6-10.3,2.7-12.4,10.9-3.2,12.6-2.4,25.5-3.6,38.3-.2,2.3.2,4.8-1.6,6.8-.6-2.6-3.4-4.2-3.1-7.1,3-9.2,3.3-18.8,4-28.3.6-7.2,1.7-14.3,4.2-21.1,1.7-4.8,1.2-9.2-.5-13.8-3.6-9.7-6.5-19.6-6.2-30.1-.7-1.1-.8-2.4.3-3,1.2-.7,2.1.3,2.6,1.4.3,3.6.9,7.1,2.5,10.3,2.1,4.5-.6,9.6,1.8,14.2,1,1.8,1,4.2,1.8,6.1,3.5,8.4,5,9.1,14.2,8.9,3.5-.1,7.1.5,10.4,2-.6,1.4-1.7,1.7-3,1.7s-.9.1-1.2.4c-.4.2-.4.6-.3,1.1Z"/>
            <path id="path409" class="st47" d="M527.8,641c-1.1-.3-2.2-.4-3.1.4-7.3.8-10.2-5-12.3-9.7-6.6-15.6-15.1-30.2-23.8-44.7-3-4.9-6.3-8.2-12.1-8.7-4.6-.6-9.3,0-13.9-1-.7-.3-1.3-.8-1.9-1.3-1.3-1.8-1.6-3.6-.5-5.5,6.6.5,13.3.9,19.9,1.7,2.6.3,4-.3,4.7-2.9.8-3,1.9-5.9,2.8-8.8.9-1.9,2-3.1,4.2-1.5-3.8,5.8-3.6,11.9-.3,17.7,6.3,10.9,11.1,22.7,18.4,33.2,3.8,5.4,6.1,11.9,9,17.9.5,1.1,1.1,2.1,1.7,3.1.2.4.5.7.7,1-.2-.3-.5-.7-.8-1,1.1-1.6,2.4-2.5,3.6-.2,1.8,3.2,3.7,6.4,3.7,10.3Z"/>
            <path id="path411" class="st46" d="M620,370.4c1.1,1.5,3,1.7,4.4,2.7-3.6,0-7.3.7-10.7,0-10-2-18.7,1.7-27.6,5-9.8,3.6-20.2,5.8-29.8,10-1.9.8-4.1,1.1-5.7,2.9-2.6,2.9-7,2.6-9.1,1.3-4.4-2.8-10.1-3.2-13.7-7.3,0-1.3.7-2.2,1.8-2.9.9-.4,1.9-.8,2.8-.4,10.3,5,19.7.8,28.8-3.3,16.3-7.3,33.8-10,51.2-13.3,4.2-.9,7.8-.4,7.6,5.3Z"/>
            <path id="path413" class="st31" d="M565.4,273.9c.5,0,1,.1,1.5.1,3.8,2.9,7.2,6.4,11.5,8.6,2.7.8,3.6,3,4.2,5.3-1.6,2.6-3.6,1.2-5.7.8-5.9-1.2-11.3-.5-16.1,3.5-11.5,9.5-23.2,19-34.3,29-3.1,2.8-5.9,5.6-10.6,4.3-.9-.6-1.6-1.4-1.1-2.6,9.3-7.6,18.3-15.4,26.4-24.3,4.6-5,9.6-9.3,15.2-13.1,4.4-2.8,8.3-6,9-11.6Z"/>
            <path id="path415" class="st60" d="M641.7,447.7c2.6,7.3,1.6,15.1,2.4,22.6.3,3.5-1.7,5.8-7.7,4.6,5.4,4.4,5.1,8.2,3.7,12.3-1.5,4.3-.7,9.1-2.7,13.3-.3-6.4-2-12.8-1.7-19.3,0-2.3-1-4.1-2.8-5.6-2.8-2.4-2.9-4.8,0-7.1,2.8-2.2,4.2-5.2,4.3-8.7.2-4.7,4.6-7.6,4.5-12.1Z"/>
            <path id="path417" class="st60" d="M205.3,440.9c.1-.9.2-1.7.4-2.6.6-3.2,2.7-5.3,5.2-2.6,4.9,5.3,11.4,8.2,16.5,13,1.1,1,2,2,1.2,3.6-5.3,3.1-10.1-.9-15.2-1.1-5.7-.2-5.7-.8-6.5,5-.8,5.6-1.4,11.3-4.4,16.4-1.8-5.9,0-11.9.3-17.7.2-4.7,1.6-9.3,2.5-14Z"/>
            <path id="path419" class="st20" d="M605,569c-2.1.2-3.6,1.3-4.9,2.7-3-6.2-8.6-10-13.5-14.4-9.3-8.5-19.2-16.2-29.8-23-1.2-1.8-.9-2.9,1.5-2.9,13.1,9.6,26.1,19.2,37.8,30.5,2.7,2.6,5.9,4.7,8.9,7.1Z"/>
            <path id="path421" class="st65" d="M567,459.9c-3-.4-6.1.3-8.9-1.4,2.4-2.3,5.7.2,8.2-1.6,1.7-.1,3.4-.2,5-.3,14.7,0,28.4,4.5,42.1,9.1-6.8.8-13.1-1.8-19.6-2.7-6.6-1-13.2-1.4-19.8-2-1.7-1.9-4.2.3-6-1.1h-1Z"/>
            <path id="path423" class="st85" d="M353.5,562.1c4.2,4.5,8.4,9,9,15.5,1.4,2.4,1.3,5,.8,7.6-1.1,11.8-8.8,21.4-10.8,32.9-.4,2.2-2.1,3.7-4.6,3.8-.8,0-1.5-.4-2-1-.7-6.2,2.5-11.6,4.6-17,2.9-7.3,4.2-15,7.3-22.2,2.4-5.5,1.2-10.1-2.7-14.4-1.1-1.2-2.1-2.6-3.1-3.9-.4-1.5.2-1.8,1.5-1.3Z"/>
            <path id="path425" class="st69" d="M460.3,570.5c.5,1.4.9,2.8,1.4,4.2.8,3-1.2,3.9-3.4,4.1-7,.8-12.6,3.7-16.9,9.3-1.1,1.4-2.6,2.1-4.3.9-.7-1.7-1.7-1.3-2.7-.4-1.4,1.3-2.5,2.9-4.6,3.1,1.4-8.7,8.5-12.3,15-16.3,4.6-2.7,9.8-4.6,15.5-4.9Z"/>
            <path id="path427" class="st47" d="M529.3,383.4l-1.5,1.5c-8.2-6.4-14.9-14.4-18.8-23.6-2.8-6.6-5.7-14.5-2.6-22.4h1c3.8,1.2,4,4.8,4.4,7.6,1.5,11.5,7.9,20.4,15,28.9,1.8,2.2,4.9,4.3,2.5,8Z"/>
            <path id="path429" class="st79" d="M491.9,558.9c-1.4.5-2.8,1-4.2,1.5.3-4.8,2.2-7.8,6.9-10.4,4.6-2.5,7.7-7.6,11.4-11.6,3.5-3.7,7-7.5,12.3-8.8-9,9.6-18.7,18.6-26.4,29.3Z"/>
            <path id="path431" class="st61" d="M558.3,531.4c-.5,1-1,1.9-1.5,2.9-8.5-3.6-16.2-9-25.7-9.9-2.3-.2-3-1.5-.3-2.8s5.9-.3,8.7-1.4c4.3,1.8,7.8,5,12.7,5.7,2.5.4,4.5,3,6.1,5.5Z"/>
            <path id="path433" class="st29" d="M353.5,562.1c-.5.4-1,.9-1.4,1.3-3.9-6.1-9.6-10.2-15.9-12.9-9.5-4-17.8-10.2-27.5-13.8,2.4-1.3,4.7-.3,6.7.8,7.9,4.5,16.4,7.7,24.5,11.6,5.6,2.9,11.2,6.4,13.6,13Z"/>
            <path id="path435" class="st69" d="M389.7,570.4c4.5-.5,8.9-1,13.4-1.3,9.5-.7,21.5,7.3,22.6,18.7-.3.2-.6.4-.9.5-2.8.5-4.2-1.3-5.6-3.4-4.4-6.6-10.2-9.5-18.7-8.6-5,.5-11.4,2.9-15.7-2.9.2-3.4,3.7-1.3,4.9-3Z"/>
            <path id="path437" class="st21" d="M345.9,620.9c.6,0,1.2,0,1.9,0,3.2,1.6,2.5,4.3,1.7,6.8-3.2,9.7-8.2,18.6-11.6,28.2-.2.6-1.1.8-1.8,1.1-3.2,2.1-5.9,1-8.3-1.4,7.4-8.4,12.1-18.3,15.7-28.7.7-2.1.9-4.3,2.4-5.9Z"/>
            <path id="path439" class="st44" d="M558.1,550.3c-.3,1.9-.4,3.8-1,5.5-.7,2.1-2.4,3.6-4.8,3.6s-3.9-1.5-4.8-3.6c-.9-2.2-.3-4.2,1.3-5.9,1.9-2.1,5.3-2.4,6.4-5.4,1.6,1.7,2.5,3.6,2.9,5.8Z"/>
            <path id="path441" class="st60" d="M204,512.9c-2.8-11.9-3.9-23.9-1.4-36,2.8,2.2,2.8,5.3,2.9,8.4.1,9.3-.6,18.4-1.5,27.6Z"/>
            <path id="path443" class="st71" d="M228.6,452.4c-2.9-2-5.8-4.1-8.8-6-3.6-2.3-7.3-4.3-9.7-8.1-1.4-2.2-3-1.9-4.5,0-.3-2.7,1.3-4.5,2.9-6.2.9-.4,2-.8,2.7-.1,7,6.4,15.1,11.4,23.4,16,1.3.7,1.7,2.2,1.5,3.8-.2.3-.4.6-.6.9-2.3-.2-4.6-.2-6.9-.3Z"/>
            <path id="path445" class="st29" d="M288.9,508.6c.5-.5,1.1-1,1.6-1.6,3,.7,4.9,2.9,6.2,5.5,2.6,5.3,5,10.7,7.2,16.2,2.1,5.2-1.9,8.3-4.5,11.9-.4.2-.7.3-1.1.5.1-.4.2-.8.3-1.2,1.6-4.1,4.2-8.1,1.7-12.8-3.4-6.4-3.2-15-11.4-18.5Z"/>
            <path id="path447" class="st80" d="M539.4,520.1c-2.3,3.9-5.4,3.2-8.7,1.4,1.9-3.9,3.7-7.7,5.6-11.6,2.3,1.8,3.1,4.3,3.1,7.1-.7-.3-1.4-1.3-2.2-.5s0,1.3.3,1.7c.5.8,1.3,1.4,1.9,1.9Z"/>
            <path id="path449" class="st16" d="M514.9,322.9c.6.6,1.2,1.2,1.8,1.8,3.1,1.8,2.6,4.2.8,6.4-2.5,2.9-4.7,6.7-9.7,4.7-1-.7-1.9-1.4-1.5-2.8.1-5.7,5.2-7.2,8.6-10.1Z"/>
            <path id="path451" class="st80" d="M457.4,304.1c.4.2,1,.3,1.3.6,4.7,5.7,10,10.6,16.6,14.2-9.4-.8-15.2-5.8-18-14.6v-.2Z"/>
            <path id="path453" class="st64" d="M235.7,606.9c-5.8-2.1-8.7-6.9-11.4-12,5.8.7,9.4,4.5,12.8,8.7-2,.4-1.6,1.9-1.4,3.3Z"/>
            <path id="path455" class="st46" d="M540.7,415c-1.6-.5-2.5.2-2.9,1.6-1.8-6.7-2.5-13.2,1.9-20.2,1.7,3.4,0,5.9-.3,8.4-.3.3-.5.7-.6,1.1,0-.4.3-.7.6-1,1.8,3.2,1.3,6.7,1.3,10.1Z"/>
            <path id="path457" class="st24" d="M360.7,584.7c.2-2.5.1-5,1.8-7.1,1.9-.9,3.7-1.9,5.6-2.8,1.2,1,3.4.4,3.8,2.5-1.9,9.3-4.9,11.3-11.2,7.4Z"/>
            <path id="path459" class="st74" d="M278.4,569.9c.5-1.4,1.4-2.5,2.6-3.4,5.3-3.7,9.8-8.3,13.9-14.5-.9,6.6-5.3,11.7-15.7,18.8-.4,0-.8.2-1.3.3.2-.3.4-.7.5-1.2Z"/>
            <path id="path461" class="st59" d="M230,515.9c-.5-.5-1-.9-1.4-1.4,13.9-4.8,21.2-6.1,29.5-5.1-10.3,2.1-19.4,3.4-28.1,6.5Z"/>
            <path id="path463" class="st41" d="M371.1,576.4c-1.2-.2-2.2-.7-3-1.7,6.9-3.1,14-5.1,21.6-4.4-1.5.9-3,1.9-4.4,2.8-3.7,5.7-8.6,6-14.2,3.3Z"/>
            <path id="path465" class="st47" d="M506.3,333c.6.5,1.1.9,1.7,1.4.9,2,1.6,4-1.7,4.3h.1c-2-5.5-8-6.4-11.7-9.9-.2-1.3.3-2,1.6-1.7,3.2,2.1,7.3,2.7,10,5.9Z"/>
            <path id="path467" class="st78" d="M274.4,576.2c-2.3,2.9-4.5,5.7-6.8,8.6-.2-4.1,2.3-6.3,4.7-8.7.7-1.2,1.4-1.2,2.1.1Z"/>
            <path id="path469" class="st80" d="M496.2,327.1c-.5.6-1.1,1.1-1.6,1.7-.7-.1-1.4-.2-2-.3-.9-.2-1.9-.7-1.7-1.7.2-1.4,1.5-1.8,2.6-1.4,1,.2,1.8,1,2.7,1.7Z"/>
            <path id="path471" class="st69" d="M428.5,592.1c-.9,1.9-1.9,3.9-2.8,5.8-4.2-3.4-3.9-6.8-.1-10.2h-.1c1.8,1,2.7,2.5,3,4.4Z"/>
            <path id="path473" class="st44" d="M539.4,628c-.5,1.1-1.3,2.7-2.5,1.8-1.8-1.4,0-2.3,1-3.3,1.4-.3,2,0,1.5,1.5Z"/>
            <path id="path475" class="st80" d="M453,304.2c1-1.9.3-3.7-.1-5.5,2.4,1.1,4,2.9,4.6,5.5l-.2.2c-1.5-.1-2.9-.2-4.3-.2Z"/>
            <path id="path477" class="st29" d="M243.2,455.1c-.7.1-1.4.2-2.1.3-2.2-.3-4.3-.8-5.5-2.9v-.2c4-2.7,6.5-1.8,7.6,2.8Z"/>
            <path id="path479" class="st21" d="M274.4,576.2c-.7,0-1.4,0-2.1,0,1.5-2.6,3.5-4.7,6.1-6.1.3.3.5.6.8.9-1.6,1.7-3.2,3.5-4.8,5.3Z"/>
            <path id="path481" class="st44" d="M477.5,310h10.1c-3.4,1.9-6.8,1.9-10.1,0Z"/>
            <path id="path483" class="st44" d="M539.4,628l-1.4-1.4v-7.2c1,1.9,1.9,3.8,2.9,5.8-.6.9-1,1.9-1.5,2.8Z"/>
            <path id="path485" class="st68" d="M299.4,540.6c-.8,1.8-1.2,3.9-3.8,5.3,0-2.8,1.5-4.4,3-6,.2.3.5.5.8.7Z"/>
            <path id="path487" class="st44" d="M347.9,353.1c-.1,2.9.3,6-1.4,8.6.1-2.9-.3-5.9,1.4-8.6Z"/>
            <path id="path489" class="st71" d="M567.9,459.8c2.1-.4,4.5-1.9,6,1.1-2,.2-4.1,0-6-1.1Z"/>
            <path id="path491" class="st44" d="M489,310c2.5,0,5,0,7.2,1.4-2.5,0-5,.1-7.2-1.4Z"/>
            <path id="path493" class="st44" d="M322,580.5c-1.4-1.9-1.4-3.8,0-5.8v5.8Z"/>
            <path id="path495" class="st44" d="M434.3,570.5c1.7-1.2,3.7-1.4,5.8-1.4-1.8,1.1-3.8,1.4-5.8,1.4Z"/>
            <path id="path497" class="st44" d="M365.2,563.3h5.8c-2,1.3-3.9,1.3-5.8,0Z"/>
            <path id="path499" class="st44" d="M401.2,560.4c1.9-1.4,3.8-1.4,5.8,0h-5.8Z"/>
            <path id="path501" class="st44" d="M513.5,550.3c0,2-.2,4-1.4,5.8,0-2.1.2-4.1,1.4-5.8Z"/>
            <path id="path503" class="st44" d="M550.9,540.2c-2,0-4-.2-5.8-1.4,2.1,0,4.1.2,5.8,1.4Z"/>
            <path id="path505" class="st44" d="M372.4,341.6c-1.7,1.2-3.7,1.4-5.8,1.4,1.8-1.1,3.8-1.4,5.8-1.4Z"/>
            <path id="path507" class="st80" d="M482.5,322.2c.2.4.4.7.6,1.1-.2.1-.6.3-.6.2-.2-.3-.4-.7-.6-1,.2-.1.4-.2.6-.3Z"/>
            <path id="path509" class="st44" d="M343.6,594.9c-1.2-1.7-1.4-3.7-1.4-5.8,1.2,1.8,1.4,3.8,1.4,5.8Z"/>
            <path id="path511" class="st60" d="M321.8,307.3c.6,1.4,1.3,2.7,1.9,4.1,9.8,14.9,11.2,31.8,11.1,48.9-5.7,10.7-10.2,22.1-17.1,32.1-1.1,1.6-2.2,3.1-3.4,4.6-7.9,9.9-10.9,10.7-22.3,5.3-13.4-6.3-26.8-12.5-39.5-19.9-1.2-.7-2.7-1-4-1.5-7.4-3.1-12.7-9-18.9-13.7-1.8-1.4-2.1-3-1.2-5,1.1-2.4,1.8-4.9,1.4-7.6.3-.7.8-1.3.8-2,.2-6.8,3.7-12,7.9-16.9,9.1-11.3,18-22.8,27.3-33.9,6.8-8.3,14-16.3,23.4-21.9,1.9.4,3.8,1.5,5.6,1.2,6.7-1.2,10.9,2.1,14.1,7.4,2.6,5.3,5.5,10.4,10.1,14.2.3,1.9,1.2,3.4,2.8,4.6Z"/>
            <path id="path513" class="st44" d="M243.2,455.1c-2.3-1.5-4.6-2.9-7.5-2.7-3.9-2.2-7.9-4.4-11.8-6.6-6.1-3.4-11.4-7.8-15.3-13.7-1.1-8.5,1.5-16.6,3.5-24.7,2.3-9.7,5-19.4,8.9-28.7.6-1.3,1-2.7,1.7-3.9,3.1-6.1,4.5-6.5,9.3-1.9,5.2,4.9,11.1,9,16.8,13.3,9.4,6.4,19.3,11.2,30.6,13.3,8.4,1.5,18.5,11.9,18.3,21.4-.2,10.6-1,21-3.4,31.3-1.8,7.7-6.3,11.6-14.1,11.1-10.7-.7-21.3-2.7-31.4-6.5-1.9-.7-3.6-1.7-5.6-1.7Z"/>
            <path id="path515" class="st44" d="M506.2,338.7c1.2-1.2,1.3-2.8,1.7-4.3,4.7-1.6,8.1-4.4,8.7-9.7,6.8-4.5,11.9-11.1,18.6-15.7,8.9-6.1,15.7-14.5,24.8-20.5,9.3-6.1,13.1-6.6,22.6-.6,6.1,5.2,11,11.5,15,18.2,4.5,7.6,10.3,14.5,14.4,22.3,5.3,10.1,12.4,19.3,15.6,30.6,2.7,9.4,2,11-7.6,11.4-1.6-1.5-3.1-2.7-5.7-2.2-17.4,3.4-34.9,6.5-51.3,13.4-4.9,2-9.8,3.8-14.8,5.7-4.5,1.7-8.9,1.5-13.1-1.1-1.8-1.1-3.9-1.9-5.8-2.8-2.7-3-5.3-6.1-8.1-9-8.7-9-11.5-20.5-14.1-32.2-.3-1.2-.6-2.3-.9-3.5Z"/>
            <path id="path517" class="st12" d="M578.4,282.7c-5.6-.4-9.3-3.6-11.5-8.6,3-2.1,3.6,1.7,5.5,2.2,2,2.1,4,4.2,6,6.4Z"/>
            <path id="path519" class="st86" d="M631.3,370c.3.5.8,1.1.8,1.6,0,.8-.8.9-1.4.6-.6-.3-1-1-.6-1.6.1-.3.7-.4,1.2-.6Z"/>
            <path id="path521" class="st52" d="M643.2,399c-.4.5-.8,1.1-1.2,1.6-.8-1.4.8-1.1,1.2-1.6h0Z"/>
            <path id="path523" class="st44" d="M437.1,589.1c5.2-9.9,13.8-14.1,24.6-14.4.5,0,.9,0,1.4,0,4.8-.9,9.7-.8,14.5,0,7.2,1,12.7,3.9,14.5,11.7.3,1.3,1.3,2.5,2.1,3.7,8.3,11.8,14.6,24.6,20.3,37.8,2.3,5.3,6.3,9.6,10.3,13.7,1.3,2.7,1.4,4.9-1.8,6.4-16.8,7.6-33.8,14.4-52.4,16.4-6.8.5-13.7,1-20.5,1.5-5.9,3.7-12.6,1.2-18.8,2.3-1.7,0-3.4.3-5,0-5.8-.8-8.3-4.2-7.2-10.1,2.5-14.1,5.3-28.1,7.6-42.3,1.1-7.1,1.4-14.3,5.7-20.5,1.3-2.1,2.5-4.5,4.7-6.1Z"/>
            <path id="path525" class="st52" d="M645.8,455.2c0,.7,0,1.4-.7,1.7-.2-.6-.5-1.2-.5-1.8s.2-1.1.4-1.1c1-.1.6.8.8,1.2Z"/>
            <path id="path527" class="st44" d="M425.7,587.7c0,3.4,0,6.8.1,10.2-.6,8.5-1.5,16.9-3.5,25.3-1.6,6.6-1.9,13.6-3.5,20.3-1,4.3-5.1,7.1-4.5,11.8,1.2,1.8,3,3.4,1.2,5.8h0c-.9.9-.9,2,0,3h0c-.4.8-1.3,1.7-1.2,2.4.5,4.2-.4,5.5-4.2,2.4-1.4-1.1-2.3.9-3.2,1.9-3.8.2-7.5.3-11.3.5-8.4-1.5-16.9-2.2-25.3-3.3-7.6-1-15.5-1.2-22.4-5.5-1-1.9-2.8-2.3-4.6-2.7-2.5-.5-5-1.2-7-2.9-1.2-3.2-.9-5.9.8-9.3,4.3-8.6,9.1-17.2,10.9-26.9,1.7-3.5,3-7,3.1-10.9,0-1.2.3-2.5.8-3.5,3.9-6.8,6.2-14.4,9-21.7,2.8.2,5-.4,6.4-3.2.9-1.9,2.6-3.4,3.9-5,4.5-2.2,9.3-2.7,14.2-3.2,5,0,10-.9,15,0,6.7-4.6,11.4.7,16.6,3.5,2.4,1.3,3.9,3.5,5.1,5.9.9,2,1.6,4,3.6,5.2Z"/>
            <path id="path529" class="st9" d="M431.1,668c6.1-2.1,12.7-.4,18.8-2.3-1.3,2.6-3.7,2.6-6,2.7-2.3,0-4.7,0-6.8,1.4-1.9-.6-3.9-1.2-6-1.8Z"/>
            <path id="path531" class="st9" d="M415.5,661.1c-.4-1.9-.8-3.9-1.2-5.8,1-.7,2.2-1.5,2.6.5.4,1.9-.1,3.7-1.4,5.3Z"/>
            <path id="path533" class="st9" d="M415.5,664.1c-2-1-2.2-2.1,0-3.1v3.1Z"/>
            <path id="path535" class="st44" d="M243.2,608.4c.4.2.8.3,1.2.5-.2.3-.4.9-.7,1s-.7-.3-1.1-.4c.1-.5.4-.8.6-1.1Z"/>
            <path id="path537" class="st19" d="M551,457.3c.6,0,1.4.2,1.4.9,0,1.5-1.2,1.8-2.3,2-.8.1-1.4-.5-1.2-1.3.2-1,1-1.5,2.1-1.6Z"/>
            <path id="path539" class="st76" d="M566.3,456.8c-2.4,2.1-5.5.8-8.2,1.6,2.3-2.8,5.5-.8,8.2-1.6Z"/>
            <path id="path541" class="st69" d="M477.5,574.5c-4.8,0-9.7,0-14.5,0,4.9-1.8,9.7-1.7,14.5,0Z"/>
            <path id="path543" class="st44" d="M520.6,630.9c1.1.3,2.1,1,2.7,2.1.5.9,1.3,1.9.6,3.5-2.1-1.5-2.8-3.5-3.1-5.7,0,0-.2.1-.2.1Z"/>
            <path id="path545" class="st71" d="M539.4,404.9c0,1.5-.2,2.9-.4,5.1-1.5-2.5-.3-3.8.4-5.1h0Z"/>
          </g>
        </g>
        <g id="labels">
          <line id="line550" class="st1" x1="613.4" y1="420.1" x2="685.3" y2="420.1"/>
          <line id="line552" class="st4" x1="613.4" y1="419.1" x2="685.3" y2="419.1"/>
          <g id="g618">
            <path id="path554" d="M698.1,423.2h-1.4v-11.6h1.4v11.6Z"/>
            <path id="path556" d="M702.1,423.2h-1.3v-8.7h1.3v1.4h0c.4-.9,1.2-1.5,2.5-1.5s3,1.1,3,3.3v5.5h-1.3v-5.4c0-1.4-.8-2.2-2-2.2s-2.2.9-2.2,2.4v5.2h0Z"/>
            <path id="path558" d="M711.5,423.2h-1.3v-8.7h1.3v1.4h0c.4-.9,1.2-1.5,2.5-1.5s3,1.1,3,3.3v5.5h-1.3v-5.4c0-1.4-.8-2.2-2-2.2s-2.2.9-2.2,2.4v5.2h0Z"/>
            <path id="path560" d="M719.1,418.9c0-2.7,1.6-4.5,3.9-4.5s3.7,1.1,3.7,4.4v.6h-6.3c0,1.9,1.1,2.9,2.7,2.9s1.8-.5,2.2-1.4l1.3.4c-.4,1.3-1.7,2.2-3.5,2.2-2.5-.2-4-2-4-4.6ZM725.4,418.1c0-1.5-.9-2.6-2.4-2.6s-2.5,1.2-2.6,2.6h5Z"/>
            <path id="path562" d="M728.8,414.4h1.3v1.3h0c.3-.9,1.2-1.5,2.3-1.5h.7v1.4c0,0-.5-.1-.8-.1-1.3,0-2.2.9-2.2,2v5.5h-1.3v-8.6h0Z"/>
            <path id="path564" d="M739.3,414.4h1.3v1.4h0c.4-.9,1.2-1.5,2.3-1.5s1.9.5,2.3,1.5h0c.4-.9,1.4-1.5,2.6-1.5s2.7.9,2.7,3v5.8h-1.3v-5.8c0-1.3-.8-1.8-1.8-1.8s-1.9.8-1.9,2v5.7h-1.4v-6c0-1-.7-1.7-1.7-1.7s-2,.9-2,2.2v5.4h-1.3v-8.7h0Z"/>
            <path id="path566" d="M752.8,418.9c0-2.7,1.6-4.5,3.9-4.5s3.7,1.1,3.7,4.4v.6h-6.3c0,1.9,1.1,2.9,2.7,2.9s1.8-.5,2.2-1.4l1.3.4c-.4,1.3-1.7,2.2-3.5,2.2-2.5-.2-4-2-4-4.6ZM759.1,418.1c0-1.5-.9-2.6-2.4-2.6s-2.5,1.2-2.6,2.6h5Z"/>
            <path id="path568" d="M762.1,418.8c0-2.7,1.5-4.5,3.7-4.5s2.2,1,2.5,1.5h0v-4.3h1.3v11.6h-1.3v-1.3h-.2c-.3.5-.9,1.5-2.5,1.5-2.1,0-3.6-1.7-3.6-4.5ZM768.5,418.8c0-2-.9-3.3-2.5-3.3s-2.5,1.4-2.5,3.3.9,3.3,2.5,3.3c1.6,0,2.5-1.3,2.5-3.3Z"/>
            <path id="path570" d="M777.9,414.4h1.3v8.7h-1.3v-1.5h0c-.4.9-1.3,1.6-2.6,1.6s-2.8-1.1-2.8-3.3v-5.5h1.3v5.4c0,1.3.8,2.1,1.9,2.1s2.2-.7,2.2-2.4v-5.1h0Z"/>
            <path id="path572" d="M783.1,423.2h-1.3v-11.6h1.3v11.6Z"/>
            <path id="path574" d="M786.9,423.2h-1.3v-11.6h1.3v11.6Z"/>
            <path id="path576" d="M788.9,420.7c0-2,1.8-2.4,3.4-2.6,1.6-.2,2.2-.1,2.2-.8h0c0-1.1-.6-1.8-1.8-1.8s-2,.7-2.3,1.3l-1.3-.5c.7-1.6,2.2-2,3.5-2s3.2.3,3.2,3.1v5.7h-1.3v-1.1h0c-.3.6-1.1,1.4-2.6,1.4s-2.9-1-2.9-2.7ZM794.5,420v-1.2c-.2.3-1.7.4-2.3.5-1,.1-2,.5-2,1.5s.8,1.4,1.8,1.4c1.7,0,2.5-1.1,2.5-2.2Z"/>
            <path id="path578" d="M798.3,414.4h1.3v1.3h0c.3-.9,1.2-1.5,2.3-1.5h.7v1.4c0,0-.5-.1-.8-.1-1.3,0-2.2.9-2.2,2v5.5h-1.3v-8.6h0Z"/>
            <path id="path580" d="M804.4,426.3l.3-1.2c1,.2,1.6.1,2.1-1.2l.2-.7-3.2-8.8h1.5l2.4,6.9h0l2.4-6.9h1.5l-3.7,10c-.5,1.4-1.4,2-2.6,2-.4,0-.8,0-1,0Z"/>
            <path id="path582" d="M696.1,438c0-2.7,1.6-4.5,3.9-4.5s3.2,1.1,3.5,2.7h-1.3c-.2-.8-.9-1.5-2.1-1.5s-2.6,1.3-2.6,3.3,1,3.3,2.6,3.3,1.8-.6,2.1-1.5h1.3c-.2,1.5-1.5,2.7-3.4,2.7s-4-1.8-4-4.5Z"/>
            <path id="path584" d="M705.1,438c0-2.7,1.6-4.5,4-4.5s4,1.8,4,4.5-1.6,4.5-4,4.5-4-1.8-4-4.5ZM711.6,438c0-1.7-.8-3.3-2.6-3.3s-2.6,1.6-2.6,3.3.8,3.3,2.6,3.3,2.6-1.5,2.6-3.3Z"/>
            <path id="path586" d="M716.4,442.4h-1.4v-11.6h1.3v11.6h.1Z"/>
            <path id="path588" d="M720.1,442.4h-1.3v-11.6h1.3v11.6Z"/>
            <path id="path590" d="M722.2,438.1c0-2.7,1.6-4.5,3.9-4.5s3.7,1.1,3.7,4.4v.6h-6.3c0,1.9,1.1,2.9,2.7,2.9s1.8-.5,2.2-1.4l1.3.4c-.4,1.3-1.7,2.2-3.5,2.2-2.5-.2-4-2-4-4.6ZM728.5,437.3c0-1.5-.9-2.6-2.4-2.6s-2.5,1.2-2.6,2.6h5Z"/>
            <path id="path592" d="M731.5,438c0-2.7,1.6-4.5,3.9-4.5s3.2,1.1,3.5,2.7h-1.3c-.2-.8-.9-1.5-2.1-1.5s-2.6,1.3-2.6,3.3,1,3.3,2.6,3.3,1.8-.6,2.1-1.5h1.3c-.2,1.5-1.5,2.7-3.4,2.7s-4-1.8-4-4.5Z"/>
            <path id="path594" d="M744.6,434.8h-1.9v5.1c0,1.1.6,1.3,1.2,1.3s.5,0,.6-.1l.3,1.2c-.2.1-.5.2-1,.2-1.1,0-2.4-.7-2.4-2.2v-5.4h-1.3v-1.1h1.3v-2.1h1.3v2.1h1.9v1h0Z"/>
            <path id="path596" d="M746.4,431.3c0-.5.4-.9,1-.9s1,.4,1,.9-.4.9-1,.9-1-.4-1-.9ZM746.7,433.6h1.3v8.7h-1.3v-8.7Z"/>
            <path id="path598" d="M751.8,442.4h-1.3v-8.7h1.3v1.4h0c.4-.9,1.2-1.5,2.5-1.5s3,1.1,3,3.3v5.5h-1.4v-5.4c0-1.4-.8-2.2-2-2.2s-2.2.9-2.2,2.4v5.2Z"/>
            <path id="path600" d="M759.8,444.1l1.1-.7c.4.5.9,1.3,2.5,1.3s2.4-.7,2.4-2.1v-1.8h0c-.3.5-.8,1.5-2.5,1.5s-3.7-1.5-3.7-4.3,1.5-4.4,3.7-4.4,2.2,1,2.5,1.5h0v-1.4h1.3v9c0,2.2-1.7,3.2-3.8,3.2-1.9-.1-3-.9-3.5-1.8ZM765.8,437.9c0-1.9-.9-3.2-2.5-3.2s-2.5,1.4-2.5,3.2.9,3.1,2.5,3.1,2.5-1.1,2.5-3.1Z"/>
            <path id="path602" d="M773.7,438c0-2.7,1.5-4.5,3.7-4.5s2.2,1,2.5,1.5h0v-4.3h1.3v11.6h-1.3v-1.3h-.2c-.3.5-.9,1.5-2.5,1.5s-3.6-1.7-3.6-4.5ZM780,438c0-2-.9-3.3-2.5-3.3s-2.5,1.4-2.5,3.3.9,3.3,2.5,3.3,2.5-1.3,2.5-3.3Z"/>
            <path id="path604" d="M789.5,433.6h1.3v8.7h-1.3v-1.5h0c-.4.9-1.3,1.6-2.6,1.6s-2.8-1.1-2.8-3.3v-5.5h1.3v5.4c0,1.3.8,2.1,1.9,2.1s2.2-.7,2.2-2.4v-5.1h0Z"/>
            <path id="path606" d="M792.9,438c0-2.7,1.6-4.5,3.9-4.5s3.2,1.1,3.5,2.7h-1.3c-.2-.8-.9-1.5-2.1-1.5s-2.6,1.3-2.6,3.3,1,3.3,2.6,3.3,1.8-.6,2.1-1.5h1.3c-.2,1.5-1.5,2.7-3.4,2.7s-4-1.8-4-4.5Z"/>
            <path id="path608" d="M806,434.8h-1.9v5.1c0,1.1.6,1.3,1.2,1.3s.5,0,.6-.1l.3,1.2c-.2.1-.5.2-1,.2-1.1,0-2.4-.7-2.4-2.2v-5.4h-1.3v-1.1h1.3v-2.1h1.3v2.1h1.9v1h0Z"/>
            <path id="path610" d="M812.1,438c0-2.7,1.6-4.5,3.9-4.5s3.2,1.1,3.5,2.7h-1.3c-.2-.8-.9-1.5-2.1-1.5s-2.6,1.3-2.6,3.3,1,3.3,2.6,3.3,1.8-.6,2.1-1.5h1.3c-.2,1.5-1.5,2.7-3.4,2.7s-4-1.8-4-4.5Z"/>
            <path id="path612" d="M821.1,438.1c0-2.7,1.6-4.5,3.9-4.5s3.7,1.1,3.7,4.4v.6h-6.3c0,1.9,1.1,2.9,2.7,2.9s1.8-.5,2.2-1.4l1.3.4c-.4,1.3-1.7,2.2-3.5,2.2-2.5-.2-4-2-4-4.6ZM827.4,437.3c0-1.5-.9-2.6-2.4-2.6s-2.5,1.2-2.6,2.6h5Z"/>
            <path id="path614" d="M832.1,442.4h-1.3v-11.6h1.3v11.6Z"/>
            <path id="path616" d="M835.9,442.4h-1.3v-11.6h1.3v11.6Z"/>
          </g>
          <g id="g628">
            <path id="path620" d="M656.3,689.5h-1.4v-10.1h0l-2.8,1.9v-1.4l2.9-1.9h1.4v11.5h0Z"/>
            <path id="path622" d="M659.4,683.7c0-3.8,1.5-6,4-6s4,2.2,4,6-1.5,6-4,6-4-2.2-4-6ZM666.1,683.7c0-3-1-4.7-2.7-4.7s-2.7,1.7-2.7,4.7,1,4.7,2.7,4.7,2.7-1.7,2.7-4.7Z"/>
            <path id="path624" d="M674.2,680.8h1.3v5.2c0,1.4,1,2.4,2.4,2.4s2.4-1,2.4-2.4v-5.2h1.3v8.7h-1.3v-1.3h0c-.5.9-1.4,1.4-2.3,1.4s-1.9-.5-2.3-1.4h0v4.6h-1.3v-12h0Z"/>
            <path id="path626" d="M684.1,680.8h1.3v1.4h0c.4-.9,1.2-1.5,2.3-1.5s1.9.5,2.3,1.5h0c.4-.9,1.4-1.5,2.6-1.5s2.7.9,2.7,3v5.8h-1.3v-5.8c0-1.3-.8-1.8-1.8-1.8s-1.9.8-1.9,2v5.7h-1.4v-6c0-1-.7-1.7-1.7-1.7s-2,.9-2,2.2v5.4h-1.3v-8.7h0Z"/>
          </g>
          <line id="line630" class="st3" x1="731.2" y1="651.8" x2="731.2" y2="672.5"/>
          <line id="line823" class="st3" x1="617.3" y1="651.8" x2="617.3" y2="672.5"/>
          <line id="line825" class="st2" x1="616.9" y1="662.1" x2="730.9" y2="662.1"/>
          <line id="line827" class="st1" x1="101.7" y1="163.5" x2="101.7" y2="121.6"/>
          <line id="line829" class="st4" x1="100.7" y1="163.5" x2="100.7" y2="121.6"/>
          <g id="g897">
            <path id="path831" d="M100.2,76.4h7v1.2h-5.6v3.9h5.2v1.2h-5.2v4h5.7v1.3h-7.1v-11.6Z"/>
            <path id="path833" d="M110.9,88h-1.3v-8.7h1.3v1.4h0c.4-.9,1.2-1.5,2.5-1.5s3,1.1,3,3.3v5.5h-1.3v-5.4c0-1.4-.8-2.2-2-2.2s-2.2.9-2.2,2.4v5.2h0Z"/>
            <path id="path835" d="M118.5,83.7c0-2.7,1.5-4.5,3.7-4.5s2.2,1,2.5,1.5h0v-4.3h1.3v11.6h-1.3v-1.3h-.2c-.3.5-.9,1.5-2.5,1.5s-3.6-1.7-3.6-4.5ZM124.9,83.7c0-2-.9-3.3-2.5-3.3s-2.5,1.4-2.5,3.3.9,3.3,2.5,3.3,2.5-1.4,2.5-3.3Z"/>
            <path id="path837" d="M128.4,83.7c0-2.7,1.6-4.5,4-4.5s4,1.8,4,4.5-1.6,4.5-4,4.5-4-1.8-4-4.5ZM135,83.7c0-1.7-.8-3.3-2.6-3.3s-2.6,1.6-2.6,3.3.8,3.3,2.6,3.3,2.6-1.5,2.6-3.3Z"/>
            <path id="path839" d="M142.2,80.4h-1.9v5.1c0,1.1.6,1.3,1.2,1.3s.5,0,.6,0l.3,1.2c-.2,0-.5.2-1,.2-1.1,0-2.4-.7-2.4-2.2v-5.4h-1.3v-1.1h1.3v-2.1h1.3v2.1h1.9v1h0Z"/>
            <path id="path841" d="M145.7,88h-1.3v-11.6h1.3v4.3h.1c.4-.9,1.2-1.5,2.6-1.5s3,1,3,3.3v5.5h-1.4v-5.4c0-1.4-.8-2.2-2-2.2s-2.3.9-2.3,2.4v5.2Z"/>
            <path id="path843" d="M153.4,83.7c0-2.7,1.6-4.5,3.9-4.5s3.7,1.1,3.7,4.4v.6h-6.3c.1,1.9,1.1,2.9,2.7,2.9s1.8-.5,2.2-1.4l1.4.3c-.4,1.3-1.7,2.2-3.5,2.2s-4.1-1.8-4.1-4.5ZM159.7,83c0-1.5-.9-2.6-2.4-2.6s-2.5,1.2-2.6,2.6h5Z"/>
            <path id="path845" d="M164.5,88h-1.3v-11.6h1.3v11.6Z"/>
            <path id="path847" d="M166.7,76.9c0-.5.4-.9,1-.9s1,.4,1,.9-.4.9-1,.9c-.6,0-1-.4-1-.9ZM167,79.3h1.3v8.7h-1.3v-8.7Z"/>
            <path id="path849" d="M176.2,79.3h1.3v8.7h-1.3v-1.5h-.1c-.4.9-1.3,1.6-2.6,1.6s-2.8-1.1-2.8-3.3v-5.5h1.3v5.4c0,1.3.8,2.1,1.9,2.1s2.2-.7,2.2-2.4v-5.1h.1Z"/>
            <path id="path851" d="M180,79.3h1.3v1.4h.1c.4-.9,1.2-1.5,2.3-1.5s1.9.5,2.3,1.5h.1c.4-.9,1.4-1.5,2.6-1.5s2.7.9,2.7,3v5.8h-1.3v-5.8c0-1.3-.8-1.8-1.8-1.8s-1.9.8-1.9,2v5.6h-1.4v-6c0-1-.7-1.7-1.7-1.7s-2,.9-2,2.2v5.5h-1.3v-8.7Z"/>
            <path id="path853" d="M198,83.7c0-2.7,1.6-4.5,4-4.5s4,1.8,4,4.5-1.6,4.5-4,4.5-4-1.8-4-4.5ZM204.6,83.7c0-1.7-.8-3.3-2.6-3.3s-2.6,1.6-2.6,3.3.8,3.3,2.6,3.3,2.6-1.5,2.6-3.3Z"/>
            <path id="path855" d="M211.9,80.4h-2v7.6h-1.3v-7.6h-1.4v-1.1h1.4v-1.2c0-1.5,1.2-2.2,2.5-2.2s1.1,0,1.3.2l-.4,1.2c-.1,0-.4,0-.8,0-.9,0-1.2.5-1.2,1.3v.9h2v1h-.1Z"/>
            <path id="path857" d="M100,98.5h1.3v1.4h.2c.3-.5.8-1.5,2.5-1.5s3.7,1.7,3.7,4.5-1.5,4.5-3.7,4.5-2.2-1-2.5-1.5h0v4.6h-1.4v-12ZM103.8,106.2c1.7,0,2.5-1.5,2.5-3.3s-.8-3.3-2.5-3.3-2.5,1.3-2.5,3.3.9,3.3,2.5,3.3Z"/>
            <path id="path859" d="M109.3,102.9c0-2.7,1.6-4.5,3.9-4.5s3.7,1.1,3.7,4.4v.6h-6.3c0,1.9,1.1,2.9,2.7,2.9s1.8-.5,2.2-1.4l1.3.4c-.4,1.3-1.7,2.2-3.5,2.2-2.4,0-4-1.9-4-4.6ZM115.6,102.2c0-1.5-.9-2.6-2.4-2.6s-2.5,1.2-2.6,2.6h5Z"/>
            <path id="path861" d="M119,98.5h1.3v1.3h0c.3-.9,1.2-1.5,2.3-1.5h.7v1.4c0,0-.5,0-.8,0-1.3,0-2.2.9-2.2,2v5.5h-1.4v-8.6Z"/>
            <path id="path863" d="M124.7,96.1c0-.5.4-.9,1-.9s1,.4,1,.9-.4.9-1,.9c-.5,0-1-.4-1-.9ZM125,98.5h1.3v8.7h-1.3v-8.7Z"/>
            <path id="path865" d="M132.6,99.6h-1.9v5.1c0,1.1.6,1.3,1.2,1.3s.5,0,.6,0l.3,1.2c-.2,0-.5.2-1,.2-1.1,0-2.4-.7-2.4-2.2v-5.4h-1.3v-1.1h1.3v-2.1h1.3v2.1h1.9v1h0Z"/>
            <path id="path867" d="M140.1,98.5h1.3v8.7h-1.3v-1.5h-.1c-.4.9-1.3,1.6-2.6,1.6s-2.8-1.1-2.8-3.3v-5.5h1.3v5.4c0,1.3.8,2.1,1.9,2.1s2.2-.7,2.2-2.4v-5.1h.1Z"/>
            <path id="path869" d="M144.1,95.6h1.3v4.3h.1c.3-.5.8-1.5,2.5-1.5s3.7,1.7,3.7,4.5-1.5,4.5-3.7,4.5-2.2-1-2.5-1.5h-.2v1.3h-1.3v-11.6h0ZM147.9,106.2c1.7,0,2.5-1.5,2.5-3.3s-.8-3.3-2.5-3.3-2.5,1.3-2.5,3.3.9,3.3,2.5,3.3Z"/>
            <path id="path871" d="M159.3,98.5h1.3v8.7h-1.3v-1.5h-.1c-.4.9-1.3,1.6-2.6,1.6s-2.8-1.1-2.8-3.3v-5.5h1.3v5.4c0,1.3.8,2.1,1.9,2.1s2.2-.7,2.2-2.4v-5.1h.1Z"/>
            <path id="path873" d="M164.5,107.2h-1.3v-11.6h1.3v11.6Z"/>
            <path id="path875" d="M166.5,104.8c0-2,1.8-2.4,3.4-2.6,1.6-.2,2.2,0,2.2-.8h0c0-1.1-.6-1.8-1.8-1.8s-2,.7-2.3,1.3l-1.3-.5c.7-1.6,2.2-2,3.5-2s3.2.3,3.2,3.1v5.7h-1.3v-1.2h-.1c-.3.6-1.1,1.4-2.6,1.4s-2.9-.9-2.9-2.6ZM172.2,104.1v-1.2c-.2.3-1.7.4-2.3.5-1,0-2,.5-2,1.5s.8,1.4,1.8,1.4c1.6-.1,2.5-1.1,2.5-2.2Z"/>
            <path id="path877" d="M176,98.5h1.3v1.3h.1c.3-.9,1.2-1.5,2.3-1.5h.7v1.4c-.1,0-.5,0-.8,0-1.3,0-2.2.9-2.2,2v5.5h-1.4v-8.6Z"/>
            <path id="path879" d="M186,102.9c0-2.7,1.6-4.5,3.9-4.5s3.2,1.1,3.5,2.7h-1.4c-.2-.8-.9-1.5-2.1-1.5s-2.6,1.3-2.6,3.3,1,3.3,2.6,3.3,1.8-.6,2.1-1.5h1.3c-.2,1.5-1.5,2.7-3.4,2.7s-3.9-1.9-3.9-4.5Z"/>
            <path id="path881" d="M194.9,104.8c0-2,1.8-2.4,3.4-2.6,1.6-.2,2.2,0,2.2-.8h0c0-1.1-.6-1.8-1.8-1.8s-2,.7-2.3,1.3l-1.3-.5c.7-1.6,2.2-2,3.5-2s3.2.3,3.2,3.1v5.7h-1.3v-1.2h-.1c-.3.6-1.1,1.4-2.6,1.4s-2.9-.9-2.9-2.6ZM200.6,104.1v-1.2c-.2.3-1.7.4-2.3.5-1,0-2,.5-2,1.5s.8,1.4,1.8,1.4c1.6-.1,2.5-1.1,2.5-2.2Z"/>
            <path id="path883" d="M204.4,98.5h1.3v1.4h.2c.3-.5.8-1.5,2.5-1.5s3.7,1.7,3.7,4.5-1.5,4.5-3.7,4.5-2.2-1-2.5-1.5h-.1v4.6h-1.3v-12h0ZM208.2,106.2c1.7,0,2.5-1.5,2.5-3.3s-.8-3.3-2.5-3.3-2.5,1.3-2.5,3.3.9,3.3,2.5,3.3Z"/>
            <path id="path885" d="M213.8,96.1c0-.5.4-.9,1-.9s1,.4,1,.9-.4.9-1,.9c-.5,0-1-.4-1-.9ZM214.1,98.5h1.3v8.7h-1.3v-8.7Z"/>
            <path id="path887" d="M219.2,107.2h-1.3v-11.6h1.3v11.6Z"/>
            <path id="path889" d="M223,107.2h-1.3v-11.6h1.3v11.6Z"/>
            <path id="path891" d="M225.1,104.8c0-2,1.8-2.4,3.4-2.6,1.6-.2,2.2,0,2.2-.8h0c0-1.1-.6-1.8-1.8-1.8s-2,.7-2.3,1.3l-1.3-.5c.7-1.6,2.2-2,3.5-2s3.2.3,3.2,3.1v5.7h-1.3v-1.2h-.1c-.3.6-1.1,1.4-2.6,1.4s-2.9-.9-2.9-2.6ZM230.7,104.1v-1.2c-.2.3-1.7.4-2.3.5-1,0-2,.5-2,1.5s.8,1.4,1.8,1.4c1.7-.1,2.5-1.1,2.5-2.2Z"/>
            <path id="path893" d="M234.5,98.5h1.3v1.3h.1c.3-.9,1.2-1.5,2.3-1.5h.7v1.4c-.1,0-.5,0-.8,0-1.3,0-2.2.9-2.2,2v5.5h-1.3v-8.6h-.1Z"/>
            <path id="path895" d="M240.6,110.3l.3-1.2c1,.2,1.6,0,2.1-1.2l.2-.7-3.2-8.8h1.5l2.4,6.9h.1l2.4-6.9h1.5l-3.7,10c-.5,1.4-1.4,2-2.6,2-.4,0-.8,0-1-.1Z"/>
          </g>
          <g class="st83">
            <g>
              <path class="st70" d="M769.4,689.3c13.2,0,24-10.8,24-24s-10.8-24-24-24-24,10.8-24,24,10.8,24,24,24Z"/>
              <path class="st27" d="M769.4,644.7c-11.4,0-20.6,9.2-20.6,20.6s9.2,20.6,20.6,20.6,20.6-9.2,20.6-20.6-9.2-20.6-20.6-20.6ZM788.1,664.9h-5c0-2.7-1-5.2-2.4-7.3l3.7-2.5c.1,0,.2-.3,0-.4,0-.1-.3-.2-.4,0l-3.7,2.5c-1.1-1.4-2.4-2.6-3.9-3.5l2.2-3.9c0-.1,0-.3-.1-.4s-.3,0-.4.1l-2.2,3.9c-1.8-1-3.9-1.6-6.2-1.6v-4.5c0-.2-.2-.4-.4-.4h0c-.2,0-.4.2-.4.4v4.5c-3,0-5.8,1.2-8.1,3l-3.3-3.9c3.2-2.6,7.3-4.2,11.8-4.2,10.2,0,18.5,8.2,18.7,18.3h0s0,0,0,0ZM778.2,674.6l-2.8-3.3c.6-.6,1.1-1.2,1.5-1.9l3.9,2c-.7,1.2-1.5,2.3-2.5,3.3h0ZM757.9,670.8l3.9-1.9c.4.9,1,1.7,1.7,2.3l-2.9,3.2c-1.1-1.1-2-2.3-2.7-3.7h0ZM750.7,665.7h5c0,1.8.5,3.6,1.2,5.1l-4.6,2.2c-1-2.2-1.6-4.7-1.7-7.3h0ZM760.9,655.8l2.8,3.3c-1.6,1.5-2.6,3.5-2.7,5.8h-4.4c.1-3.6,1.7-6.8,4.2-9.1ZM769.4,672.3c-.4,0-.8,0-1.1,0l.7-4.1c.1,0,.3,0,.4,0,.7,0,1.3-.2,1.8-.6l1,1.2c-.8.6-1.8,1-2.9,1s-.2.1-.2.2.1.2.2.2c1.2,0,2.3-.4,3.2-1.2l1.3,1.5c-1.2,1-2.8,1.6-4.5,1.6h0s0,0,0,0ZM763.1,668.3l3.7-1.8c.4.7,1,1.3,1.8,1.5l-.7,4.1c-2.1-.5-3.9-1.9-4.8-3.8h0ZM764.6,660.2l1.2,1.5c-.7.7-1.3,1.6-1.5,2.7,0,.1,0,.3.2.3.1,0,.3,0,.3-.2.2-.9.7-1.8,1.3-2.4l1.1,1.3c-.4.4-.6,1-.7,1.5h-4.2c0-1.9.9-3.5,2.2-4.7h0ZM772.8,668.3l-1.1-1.2c.3-.4.5-.8.5-1.3h1.6c0,1-.5,1.9-1.1,2.6h0ZM767.7,665.3c0-1,.8-1.7,1.7-1.7s1.7.8,1.7,1.7-.8,1.7-1.7,1.7-1.7-.8-1.7-1.7ZM772.3,664.9c-.2-1.4-1.4-2.5-2.9-2.5s-1.1.2-1.6.5l-1.1-1.3c.7-.5,1.6-.8,2.6-.8,2.4,0,4.4,1.8,4.6,4.2h-1.6,0ZM766.5,665.7c0,.2,0,.3.1.5l-3.8,1.8c-.3-.7-.5-1.5-.5-2.3h4.2ZM773.1,668.7c.2-.3.5-.6.6-.9l1.8.9c-.3.5-.7,1.1-1.1,1.5l-1.3-1.6h0ZM774,667.2c.2-.5.3-1,.4-1.5h2.1c0,.9-.3,1.7-.6,2.5l-1.8-.9h0ZM774.4,664.9c-.2-2.6-2.4-4.7-5-4.7s-2.1.3-2.9.9l-1.2-1.5c1.2-.9,2.7-1.4,4.2-1.4,2.3,0,4.3,1.1,5.6,2.8,0,0,0,0,0,0,0,0,0,0,0,0,.8,1.1,1.2,2.4,1.3,3.7h-2.1,0ZM773.8,658.1l2.2-3.8c1.4.9,2.6,2,3.6,3.2l-3.6,2.5c-.6-.8-1.3-1.4-2.2-1.9h0ZM773.3,657.8c-1.1-.6-2.2-.9-3.5-1v-4.4c2,0,4,.6,5.7,1.5l-2.2,3.8h0ZM769,656.9c-1.8,0-3.4.7-4.7,1.7l-2.8-3.3c2.1-1.7,4.7-2.7,7.5-2.8v4.4h0ZM756.6,665.7h4.4c0,1,.3,2,.7,2.9l-3.9,1.9c-.7-1.5-1-3.1-1.1-4.8h0ZM763.9,671.7c1.1.9,2.3,1.6,3.8,1.9l-.8,4.3c-2.2-.5-4.3-1.5-5.9-2.9l2.9-3.2h0ZM768.1,673.6c.4,0,.9.1,1.3.1s.9,0,1.3-.1l.8,4.3c-.7.1-1.4.2-2.1.2s-1.4,0-2.1-.2l.8-4.3h0,0ZM771.1,673.5c1.4-.3,2.6-.9,3.6-1.7l2.8,3.3c-1.6,1.3-3.5,2.3-5.7,2.7l-.8-4.3h0ZM777.1,668.8c.4-1,.7-2,.8-3.1h4.4c0,1.8-.5,3.6-1.2,5.1l-3.9-2h0ZM777.8,664.9c0-1.6-.6-3.1-1.5-4.4l3.6-2.5c1.3,2,2.2,4.3,2.2,6.8h-4.4ZM757,651.3l3.3,3.9c-2.7,2.4-4.4,5.9-4.5,9.8h-5c.1-5.4,2.5-10.3,6.3-13.6h0ZM752.5,673.4l4.6-2.2c.7,1.5,1.7,2.8,2.9,4l-3.1,3.4c-.1.1,0,.3,0,.4,0,0,.1,0,.2,0s.2,0,.2-.1l3.1-3.4c1.8,1.6,4,2.7,6.4,3.1l-.9,5c-5.9-1.1-10.8-5-13.3-10.3h0ZM766.3,683.7l.9-5c.7.1,1.5.2,2.3.2s1.5,0,2.2-.2l.9,5c-1,.2-2.1.3-3.2.3s-2.1,0-3.2-.3h0ZM772.9,683.7l-.9-5c2.3-.5,4.4-1.5,6.1-2.9l2,2.3c0,0,.2.1.3.1s.2,0,.2,0c.2-.1.2-.4,0-.6l-2-2.3c1.1-1,2-2.2,2.7-3.5l1.4.7s0,0,.1,0c.1,0,.2,0,.3-.2,0-.1,0-.3-.1-.4l-1.4-.7c.8-1.7,1.3-3.5,1.3-5.5h5c-.2,8.9-6.7,16.4-15.2,18h0Z"/>
            </g>
          </g>
        </g>
      </g>
    </g>
  </g>
</svg>